<?xml version="1.0" encoding="utf-8"?>
<!-- Generator: Adobe Illustrator 27.3.1, SVG Export Plug-In . SVG Version: 6.00 Build 0)  -->
<svg version="1.1" id="Layer_1" xmlns="http://www.w3.org/2000/svg" xmlns:xlink="http://www.w3.org/1999/xlink" x="0px" y="0px"
	 viewBox="0 0 800 800" style="enable-background:new 0 0 800 800;" xml:space="preserve">
<style type="text/css">
	.st0{fill-rule:evenodd;clip-rule:evenodd;fill:#7B93BE;}
</style>
<g id="web-app">
	<g id="timeline">
		<path id="Shape" class="st0" d="M274.3,622.2c18.3-51.8,67.7-88.9,125.7-88.9s107.4,37.1,125.7,88.9h229.8l44.4,44.4l-44.4,44.4
			H525.7C507.4,762.9,458.1,800,400,800s-107.4-37.1-125.7-88.9H0l44.4-44.4L0,622.2H274.3z M400,711.1c24.5,0,44.4-19.9,44.4-44.4
			s-19.9-44.4-44.4-44.4s-44.4,19.9-44.4,44.4S375.5,711.1,400,711.1z M488.9,400L400,488.9L311.1,400H177.8
			c-49.1,0-88.9-39.8-88.9-88.9V88.9C88.9,39.8,128.7,0,177.8,0h444.4c49.1,0,88.9,39.8,88.9,88.9v222.2c0,49.1-39.8,88.9-88.9,88.9
			H488.9z M177.8,88.9v222.2h177.8l44.4,44.4l44.4-44.4h177.8V88.9H177.8z"/>
	</g>
</g>
</svg>
