<?xml version="1.0" encoding="utf-8"?>
<!-- Generator: Adobe Illustrator 27.3.1, SVG Export Plug-In . SVG Version: 6.00 Build 0)  -->
<svg version="1.1" id="Layer_1" xmlns="http://www.w3.org/2000/svg" xmlns:xlink="http://www.w3.org/1999/xlink" x="0px" y="0px"
	 viewBox="0 0 800 800" style="enable-background:new 0 0 800 800;" xml:space="preserve">
<style type="text/css">
	.st0{fill:#7B93BE;}
</style>
<path class="st0" d="M373.2,691.6H26.7C12,691.6,0,679.6,0,664.9v-53.3C0,596.9,12,585,26.7,585h345.2c14.7,0,26.7,12,26.7,26.7
	v53.3c1.3,13.3-9.3,25.3-24,26.7H373.2z"/>
<path class="st0" d="M373.2,214.5H26.7C12,214.5,0,202.5,0,187.8v-53.3c0-14.7,12-26.7,26.7-26.7h345.2c14.7,0,26.7,12,26.7,26.7
	v53.3c1.3,13.3-9.3,25.3-24,26.7H373.2z"/>
<path class="st0" d="M553.1,622.3c9.3,9.3,25.3,9.3,34.7,0l0,0l203.9-202.6c10.7-9.3,10.7-25.3,2.7-34.7c-1.3-1.3-1.3-1.3-2.7-2.7
	L587.7,178.5c-9.3-10.7-25.3-10.7-34.7-2.7c-1.3,1.3-1.3,1.3-2.7,2.7l-37.3,37.3c-10.7,9.3-10.7,25.3-2.7,34.7
	c1.3,1.3,1.3,1.3,2.7,2.7l64,64c6.7,6.7,6.7,18.7,0,25.3c-2.7,2.7-8,5.3-12,5.3H29.3c-14.7,0-28,12-28,26.7v53.3
	c1.3,14.7,13.3,25.3,28,26.7h538.4c9.3,0,17.3,8,17.3,17.3c0,4-1.3,9.3-5.3,12l-64,64c-10.7,9.3-10.7,25.3-2.7,34.7
	c1.3,1.3,1.3,1.3,2.7,2.7L553.1,622.3z"/>
</svg>
