<?xml version="1.0" encoding="utf-8"?>
<!-- Generator: Adobe Illustrator 27.3.1, SVG Export Plug-In . SVG Version: 6.00 Build 0)  -->
<svg version="1.1" id="Layer_1" xmlns="http://www.w3.org/2000/svg" xmlns:xlink="http://www.w3.org/1999/xlink" x="0px" y="0px"
	 viewBox="0 0 117.3 122.9" style="enable-background:new 0 0 117.3 122.9;" xml:space="preserve">
<style type="text/css">
	.st0{fill-rule:evenodd;clip-rule:evenodd;fill:#7B93BE;}
</style>
<g>
	<path class="st0" d="M85.1,14.8L43.3,40.3h11.9l30.9-18.8l4.5-2.8l13.1,21.6h7.6c1.7,0,3.2,0.7,4.2,1.8l0,0
		c1.1,1.1,1.8,2.6,1.8,4.2v70.6c0,1.7-0.7,3.2-1.8,4.2v0c-1.1,1.1-2.6,1.8-4.2,1.8H6c-1.7,0-3.2-0.7-4.2-1.8v0
		C0.7,120,0,118.5,0,116.9V46.3c0-1.7,0.7-3.2,1.8-4.2C2.8,41,4.3,40.3,6,40.3h2.5l65-39.5l0,0C74.4,0.3,75.3,0,76.3,0
		c0.4,0,0.8,0.1,1.2,0.2c1.4,0.3,2.5,1.2,3.3,2.4l0,0l6.6,10.9L85.1,14.8L85.1,14.8L85.1,14.8z M5.9,45.6c-0.2,0.2-0.4,0.5-0.6,0.8
		v8.7H112v-8.9c0-0.2-0.1-0.4-0.2-0.5h0c-0.1-0.1-0.3-0.2-0.5-0.2H6C6,45.6,5.9,45.6,5.9,45.6L5.9,45.6z M16,84.7h19v7.1H16V84.7
		L16,84.7z M16,101.6h53.2v6.4H16V101.6L16,101.6z M86.2,84.7h19v7.1h-19V84.7L86.2,84.7z M62.8,84.7h19v7.1h-19V84.7L62.8,84.7z
		 M39.4,84.7h19v7.1h-19V84.7L39.4,84.7z M112,75.1H5.3v41.7c0,0.2,0.1,0.4,0.2,0.5h0c0.1,0.1,0.3,0.2,0.5,0.2h105.3
		c0.2,0,0.3-0.1,0.5-0.2l0,0c0.1-0.1,0.2-0.3,0.2-0.5l0,0L112,75.1L112,75.1z"/>
</g>
</svg>
