<?xml version="1.0" encoding="utf-8"?>
<!-- Generator: Adobe Illustrator 27.3.1, SVG Export Plug-In . SVG Version: 6.00 Build 0)  -->
<svg version="1.1" id="Layer_1" xmlns="http://www.w3.org/2000/svg" xmlns:xlink="http://www.w3.org/1999/xlink" x="0px" y="0px"
	 viewBox="0 0 800 800" style="enable-background:new 0 0 800 800;" xml:space="preserve">
<style type="text/css">
	.st0{fill:none;stroke:#7B93BE;stroke-width:50;stroke-miterlimit:133.3333;}
	.st1{fill:none;stroke:#7B93BE;stroke-width:50;stroke-linecap:round;stroke-miterlimit:133.3333;}
</style>
<path class="st0" d="M625,323.7v-23.5c0-129-100.7-233.5-225-233.5c-124.2,0-225,104.5-225,233.5v23.5c0,28.2-8,55.7-23.1,79.2
	L115,460.3c-33.7,52.5-8,123.8,50.7,140.4c153.4,43.4,315.2,43.4,468.6,0c58.6-16.6,84.4-88,50.7-140.4l-36.9-57.5
	C633,379.4,625,351.8,625,323.7z"/>
<path class="st1" d="M250,633.3c21.8,58.3,80.7,100,150,100c69.2,0,128.2-41.7,150-100"/>
</svg>
