<?xml version="1.0" encoding="utf-8"?>
<!-- Generator: Adobe Illustrator 27.3.1, SVG Export Plug-In . SVG Version: 6.00 Build 0)  -->
<svg version="1.1" id="Layer_1" xmlns="http://www.w3.org/2000/svg" xmlns:xlink="http://www.w3.org/1999/xlink" x="0px" y="0px"
	 viewBox="0 0 113.4 122.9" style="enable-background:new 0 0 113.4 122.9;" xml:space="preserve">
<style type="text/css">
	.st0{fill:#7B93BE;}
</style>
<g>
	<path class="st0" d="M39,79.7c-1.4,0-2.5-1.3-2.5-3s1.1-3,2.5-3h13.6c1.4,0,2.5,1.3,2.5,3s-1.1,3-2.5,3H39L39,79.7z M85.7,67.4
		c7.7,0,14.6,3.1,19.6,8.1c5,5,8.1,11.9,8.1,19.6s-3.1,14.6-8.1,19.6c-5,5-11.9,8.1-19.6,8.1s-14.6-3.1-19.6-8.1
		c-5-5-8.1-11.9-8.1-19.6s3.1-14.6,8.1-19.6C71.1,70.5,78,67.4,85.7,67.4L85.7,67.4z M83.5,82.2c0-1.4,1.1-2.5,2.5-2.5
		s2.5,1.1,2.5,2.5v12.9l9.7,5.7c1.2,0.7,1.6,2.2,0.9,3.4c-0.7,1.2-2.2,1.6-3.4,0.9l-10.8-6.4c-0.8-0.4-1.3-1.2-1.3-2.2V82.2
		L83.5,82.2z M101.8,79c-4.1-4.1-9.8-6.7-16.1-6.7s-12,2.6-16.1,6.7c-4.1,4.1-6.7,9.8-6.7,16.1s2.6,12,6.7,16.1
		c4.1,4.1,9.8,6.7,16.1,6.7s12-2.6,16.1-6.7c4.1-4.1,6.7-9.8,6.7-16.1S105.9,83.2,101.8,79L101.8,79z M44.1,109.9c1.6,0,3,1.3,3,3
		s-1.3,3-3,3H6.9c-1.9,0-3.6-0.8-4.9-2c-1.3-1.3-2-3-2-4.9V6.9C0,5,0.8,3.3,2,2c1.2-1.3,3-2,4.9-2h84.9c1.9,0,3.6,0.8,4.9,2
		c1.2,1.2,2,3,2,4.9v47.3c0,1.6-1.3,3-3,3s-3-1.3-3-3V6.9c0-0.3-0.1-0.5-0.3-0.7S92.1,6,91.8,6H6.9C6.7,6,6.4,6.1,6.2,6.2
		C6.1,6.4,5.9,6.7,5.9,6.9V109c0,0.3,0.1,0.5,0.3,0.7c0.2,0.2,0.4,0.3,0.7,0.3H44.1L44.1,109.9z M19.1,72.5h7.4c0.5,0,1,0.4,1,1v7.4
		c0,0.5-0.4,1-1,1h-7.5c-0.5,0-1-0.4-1-1v-7.4C18.1,72.9,18.6,72.5,19.1,72.5L19.1,72.5z M19.1,21.5h7.4c0.5,0,1,0.4,1,1v7.4
		c0,0.5-0.4,1-1,1h-7.5c-0.5,0-1-0.4-1-1v-7.5C18.1,21.9,18.6,21.5,19.1,21.5L19.1,21.5z M39,28.7c-1.4,0-2.5-1.3-2.5-3s1.1-3,2.5-3
		h35.5c1.4,0,2.5,1.3,2.5,3s-1.1,3-2.5,3H39L39,28.7z M22.2,56.1c-0.6,0.5-1.6,0.4-2.2-0.2c-0.1,0-0.1-0.1-0.2-0.2l-3.1-3.2
		C16,51.8,16.1,50.7,17,50c0.8-0.7,2-0.8,2.7-0.1l1.7,1.8l5.5-4.4c0.7-0.6,1.9-0.3,2.5,0.6s0.6,2.1-0.2,2.7L22.2,56.1L22.2,56.1z
		 M37.4,53.7c-1.4,0-2.5-1.3-2.5-3s1.1-3,2.5-3h35.5c1.4,0,2.5,1.3,2.5,3s-1.1,3-2.5,3H37.4L37.4,53.7z"/>
</g>
</svg>
