<?xml version="1.0" encoding="utf-8"?>
<!-- Generator: Adobe Illustrator 27.3.1, SVG Export Plug-In . SVG Version: 6.00 Build 0)  -->
<svg version="1.1" id="Layer_1" xmlns="http://www.w3.org/2000/svg" xmlns:xlink="http://www.w3.org/1999/xlink" x="0px" y="0px"
	 viewBox="0 0 800 800" style="enable-background:new 0 0 800 800;" xml:space="preserve">
<style type="text/css">
	.st0{fill-rule:evenodd;clip-rule:evenodd;fill:#7B93BE;}
</style>
<g id="Page-1">
	<g id="Dribbble-Light-Preview" transform="translate(-180.000000, -2159.000000)">
		<g id="icons" transform="translate(56.000000, 160.000000)">
			<path id="profile-_x5B__x23_1341_x5D_" class="st0" d="M524,2399c-88.7,0-160.8-71.8-160.8-160c0-88.2,72.1-160,160.8-160
				s160.8,71.8,160.8,160C684.8,2327.2,612.7,2399,524,2399 M675,2425.9c63.8-51.1,101-133.7,87.3-224.1
				c-15.9-104.9-103.6-188.9-209.4-201.1c-146.1-16.9-270,96.3-270,238.3c0,75.6,35.2,143,90.1,186.9
				c-134.9,50.4-233.3,168.9-248.8,328.7c-2.3,23.6,16.3,44.4,40.2,44.4c20.5,0,37.9-15.4,39.7-35.6
				c16.1-178.5,153.4-284.4,320-284.4s303.8,105.8,320,284.4c1.8,20.3,19.3,35.6,39.7,35.6c23.9,0,42.4-20.7,40.2-44.4
				C908.4,2594.8,809.9,2476.4,675,2425.9"/>
		</g>
	</g>
</g>
</svg>
