<?xml version="1.0" encoding="UTF-8"?>
<svg id="Layer_2" data-name="Layer 2" xmlns="http://www.w3.org/2000/svg" viewBox="0 0 388.21 327.95">
  <defs>
    <style>
      .cls-1, .cls-2 {
        fill: #fff;
      }

      .cls-3, .cls-4 {
        fill: #59cbe8;
      }

      .cls-2, .cls-4 {
        fill-rule: evenodd;
      }
    </style>
  </defs>
  <g id="Layer_4" data-name="Layer 4">
    <g>
      <g>
        <path class="cls-4" d="m193.85,65.7c7.7,0,14.4,4.3,17.8,10.8l2.4-1.4v15.5c0,3.7,3,6.5,6.5,6.5h.5v-3.5h-.1c-1.8,0-3.3-1.5-3.3-3.3v-17.2l5.8-3.1-29.7-15-29.7,15.7,11.8,6.1c3.5-6.6,10.2-11.1,18-11.1h0Zm0,3.4c-9.2,0-16.8,7.6-16.8,16.9s7.5,16.9,16.8,16.9,16.8-7.6,16.8-16.9-7.5-16.9-16.8-16.9Zm52,78.9l-24.7-34.3s-3.3-6.2-10.8-6.5h-32.7c-7.7.3-10.8,6.5-10.8,6.5l-24.8,34.3c-1.1,1.5-1.6,3.4-1.6,5.4,0,5.3,4.3,9.6,9.6,9.6h13.4v2.4c0,1.4,1.1,2.4,2.4,2.4h56.5c1.4,0,2.4-1.1,2.4-2.4v-2.4h13.4c5.3,0,9.6-4.3,9.6-9.6-.3-2-.8-3.9-1.9-5.4h0Zm-21.3,14.8h-61.3v-36.9c0-1.6,1.4-2.8,2.8-2.8h55.6c1.6,0,2.8,1.4,2.8,2.8v36.9h.1Zm-30.7-25.8c-3.5,0-6.5,2.8-6.5,6.5s2.8,6.5,6.5,6.5c3.5,0,6.5-3,6.5-6.5s-2.9-6.5-6.5-6.5Z"/>
        <g>
          <path class="cls-4" d="m273.15,32.8C252.15,11.8,224.15,0,194.25,0c-10.4,0-20.3,1.4-29.8,4.2l-.5.2,1.6,8.6.7-.2c9.3-2.5,18.7-3.9,28-3.9,56.7,0,102.7,46.2,102.7,102.9s-46,102.7-102.7,102.7c-56.7-.2-102.9-46.2-102.9-102.9,0-21.5,6.5-41.9,19-59.4l.5-.5-7.6-4.4-.2.5c-13.2,18.7-20.3,40.9-20.3,64.1,0,61.3,49.9,111.2,111.2,111.2s111.5-49.9,111.5-111.2c.3-30-11.2-58-32.3-79.1h0Z"/>
          <path class="cls-2" d="m269.75,165.8l-8.1-4.6v-.5c10.6-14.8,16.2-31.9,16.2-49.7,0-46.2-37.7-83.9-83.9-83.9s-83.9,37.7-83.9,83.9,37.7,83.9,83.9,83.9c8.1,0,16.2-1.4,24-3.7l.7-.2,1.9,9.3-.5.2c-8.1,2.5-16.6,3.7-25.7,3.7-51.6,0-93.4-41.9-93.4-93.4S142.85,17.4,194.35,17.4c25,0,48.6,9.7,66.1,27.5,17.6,17.6,27.1,41.2,26.8,66.4,0,19.7-6,38.4-17.3,54.1l-.2.4Z"/>
        </g>
      </g>
      <g id="Lettering">
        <g>
          <g>
            <path class="cls-3" d="m19.5,325.75c.4,0,.8,0,1.1-.1.3-.1.6-.2.9-.3v-1.9h-1.2c-.2,0-.3,0-.4-.1s-.2-.2-.2-.4v-1.6h4.5v5.3c-.3.2-.7.4-1,.6-.3.2-.7.3-1.1.4-.4.1-.8.2-1.3.2s-.9.1-1.4.1c-.9,0-1.8-.2-2.6-.5-.8-.3-1.5-.8-2-1.3-.6-.6-1-1.2-1.3-2s-.5-1.6-.5-2.6c0-.9.2-1.8.5-2.6s.8-1.5,1.3-2c.6-.6,1.3-1,2.1-1.3.8-.3,1.7-.5,2.7-.5.5,0,1,0,1.5.1s.9.2,1.3.4c.4.1.7.3,1.1.5.3.2.6.4.9.7l-.8,1.3c-.1.1-.2.2-.3.3-.1.1-.2.1-.4.1s-.4-.1-.5-.2c-.2-.1-.4-.3-.7-.4-.2-.1-.4-.2-.6-.2-.2-.1-.4-.1-.7-.1h-.8c-.5,0-1,.1-1.5.3-.4.2-.8.5-1.1.8-.3.4-.5.8-.7,1.3s-.2,1-.2,1.6c0,.7.1,1.3.3,1.8.2.5.4,1,.8,1.3.3.4.7.6,1.2.8,0,.1.5.2,1.1.2h0Z"/>
            <path class="cls-3" d="m42.8,315.35v2.2h-5.2v2.9h3.9v2.2h-3.9v3h5.2v2.2h-8.1v-12.6l8.1.1h0Z"/>
            <path class="cls-3" d="m62,315.35v2.3h-3.5v10.2h-2.9v-10.2h-3.5v-2.3h9.9Z"/>
            <path class="cls-3" d="m87.6,323.05v4.8h-2.9v-4.8l-4.6-7.8h2.6c.3,0,.5.1.6.2.1.1.3.3.4.5l1.8,3.7c.1.3.3.6.4.8s.2.5.3.7c.1-.2.2-.5.3-.7.1-.2.2-.5.4-.8l1.8-3.7c0-.1.1-.1.1-.2q.1-.1.2-.2c.1-.1.2-.1.3-.1s.2-.1.3-.1h2.6l-4.6,7.7Z"/>
            <path class="cls-3" d="m113.9,321.55c0,.9-.2,1.8-.5,2.5s-.8,1.5-1.3,2c-.6.6-1.3,1-2.1,1.4s-1.7.5-2.7.5-1.9-.2-2.7-.5c-.8-.3-1.5-.8-2.1-1.4s-1-1.3-1.3-2c-.3-.8-.5-1.6-.5-2.5s.2-1.8.5-2.5c.3-.8.8-1.5,1.3-2s1.3-1,2.1-1.4c.8-.3,1.7-.5,2.7-.5s1.9.2,2.7.5,1.5.8,2.1,1.4c.6.6,1,1.3,1.3,2,.4.8.5,1.6.5,2.5h0Zm-3,0c0-.6-.1-1.2-.2-1.7-.2-.5-.4-.9-.7-1.3s-.7-.6-1.1-.8-.9-.3-1.5-.3-1.1.1-1.5.3-.8.4-1.1.8c-.3.3-.5.8-.7,1.3s-.2,1.1-.2,1.7.1,1.2.2,1.7.4.9.7,1.3c.3.3.7.6,1.1.8s.9.3,1.5.3,1.1-.1,1.5-.3.8-.4,1.1-.8.5-.8.7-1.3c.2-.5.2-1,.2-1.7Z"/>
            <path class="cls-3" d="m130.1,325.55c.4,0,.7-.1,1-.2.3-.1.6-.3.8-.6.2-.2.4-.5.5-.9s.2-.7.2-1.2v-7.4h2.9v7.4c0,.8-.1,1.5-.4,2.1-.2.6-.6,1.2-1.1,1.7s-1,.8-1.7,1.1-1.4.4-2.2.4-1.6-.1-2.3-.4c-.7-.3-1.2-.6-1.7-1.1s-.8-1-1.1-1.7c-.2-.6-.4-1.4-.4-2.1v-7.4h2.9v7.4c0,.4.1.8.2,1.2.1.3.3.6.5.9.2.2.5.4.8.6.4.1.7.2,1.1.2h0Z"/>
            <path class="cls-3" d="m149.6,323.25v4.6h-2.9v-12.6h4.1c.9,0,1.7.1,2.3.3s1.2.4,1.6.8c.4.3.7.7.9,1.2s.3.9.3,1.5c0,.4-.1.8-.2,1.2s-.3.7-.5,1-.5.6-.8.8-.7.4-1.1.6c.2.1.4.2.5.4.2.1.3.3.4.5l2.7,4.4h-2.6c-.5,0-.8-.2-1.1-.6l-2.1-3.6c-.1-.2-.2-.3-.3-.3-.1-.1-.3-.1-.5-.1h-.7v-.1h0Zm0-2h1.2c.4,0,.7-.1,1-.2.3-.1.5-.2.7-.4s.3-.4.4-.6.1-.5.1-.8c0-.6-.2-1-.5-1.3s-.9-.5-1.7-.5h-1.2v3.8Z"/>
            <path class="cls-3" d="m178.5,327.85h-2.9v-12.6h2.9v12.6Z"/>
            <path class="cls-3" d="m190.5,315.35h.3c.1,0,.2,0,.2.1.1,0,.1.1.2.1s.1.1.2.2l6,7.5c0-.2,0-.5-.1-.7v-7.2h2.6v12.6h-1.5c-.2,0-.4,0-.6-.1s-.3-.2-.4-.4l-5.9-7.5v7.9h-2.6v-12.6l1.6.1Z"/>
            <path class="cls-3" d="m220.2,315.35v2.3h-3.5v10.2h-2.9v-10.2h-3.5v-2.3h9.9Z"/>
            <path class="cls-3" d="m238,315.35v2.2h-5.2v2.9h3.9v2.2h-3.9v3h5.2v2.2h-8.1v-12.6l8.1.1h0Z"/>
            <path class="cls-3" d="m251.3,323.25v4.6h-2.9v-12.6h4.1c.9,0,1.7.1,2.3.3s1.2.4,1.6.8c.4.3.7.7.9,1.2.2.5.3.9.3,1.5,0,.4-.1.8-.2,1.2s-.3.7-.5,1-.5.6-.8.8-.7.4-1.1.6c.2.1.4.2.5.4.2.1.3.3.4.5l2.7,4.4h-2.6c-.5,0-.8-.2-1.1-.6l-2.1-3.6c-.1-.2-.2-.3-.3-.3-.1-.1-.3-.1-.5-.1h-.7v-.1h0Zm0-2h1.2c.4,0,.7-.1,1-.2.3-.1.5-.2.7-.4s.3-.4.4-.6.1-.5.1-.8c0-.6-.2-1-.5-1.3s-.9-.5-1.7-.5h-1.2v3.8Z"/>
            <path class="cls-3" d="m270.5,315.35h.3c.1,0,.2,0,.2.1.1,0,.1.1.2.1q.1.1.2.2l6,7.5c0-.2,0-.5-.1-.7v-7.2h2.6v12.6h-1.5c-.2,0-.4,0-.6-.1s-.3-.2-.4-.4l-5.9-7.5v7.9h-2.6v-12.6l1.6.1Z"/>
            <path class="cls-3" d="m297.8,317.85c-.1.1-.2.2-.3.3-.1.1-.2.1-.4.1-.1,0-.3,0-.4-.1s-.3-.2-.5-.3-.4-.2-.7-.3-.5-.1-.8-.1c-.5,0-1,.1-1.2.3-.3.2-.4.5-.4.9,0,.3.1.5.2.6s.4.3.6.4c.3.1.6.2.9.3s.7.2,1,.3c.4.1.7.3,1,.4.3.2.6.4.9.6.3.3.5.6.6.9.2.4.2.8.2,1.3,0,.6-.1,1.1-.3,1.6-.2.5-.5.9-.9,1.3s-.9.7-1.4.9-1.2.3-1.9.3c-.4,0-.8,0-1.2-.1l-1.2-.3c-.4-.1-.7-.3-1.1-.5s-.6-.4-.9-.7l.9-1.4c.1-.1.2-.2.3-.2.1-.1.2-.1.4-.1s.3.1.5.2c.2.1.4.2.6.4s.5.3.8.4c.3.1.6.2,1,.2.5,0,.9-.1,1.2-.3.3-.2.4-.6.4-1.1,0-.3-.1-.5-.2-.7-.2-.2-.4-.3-.6-.5-.3-.1-.6-.2-.9-.3s-.7-.2-1-.3c-.4-.1-.7-.2-1-.4s-.6-.4-.9-.6c-.3-.3-.5-.6-.6-1s-.2-.9-.2-1.5c0-.5.1-.9.3-1.4.2-.4.5-.8.8-1.2.4-.4.8-.6,1.4-.8.5-.2,1.1-.3,1.8-.3.4,0,.8,0,1.1.1.4.1.7.1,1,.3s.6.3.9.4.5.3.8.6l-.6,1.4Z"/>
            <path class="cls-3" d="m320,327.85h-2.9v-5.3h-5.1v5.3h-2.9v-12.6h2.9v5.2h5.1v-5.2h2.9v12.6Z"/>
            <path class="cls-3" d="m333.5,327.85h-2.9v-12.6h2.9v12.6Z"/>
            <path class="cls-3" d="m346.6,323.65v4.2h-2.9v-12.6h4.4c.9,0,1.6.1,2.3.3s1.2.5,1.6.9.7.8.9,1.3c.2.5.3,1,.3,1.6s-.1,1.2-.3,1.7c-.2.5-.5,1-.9,1.3s-.9.7-1.6.9c-.6.2-1.4.3-2.3.3l-1.5.1h0Zm0-2.2h1.5c.8,0,1.3-.2,1.6-.5.3-.4.5-.9.5-1.5,0-.3,0-.5-.1-.8-.1-.2-.2-.4-.4-.6-.2-.2-.4-.3-.7-.4s-.6-.1-1-.1h-1.5l.1,3.9h0Z"/>
          </g>
          <g>
            <path class="cls-1" d="m9,228.35v69.3H0v-69.3h9Z"/>
            <path class="cls-1" d="m31.9,265.15v32.6h-9v-44.6h9v5.2c1.9-5.1,5.6-7.6,11.3-7.6,4.8,0,8.7,1.7,11.5,5.1,2.8,3.4,4.3,7.7,4.4,12.9v29h-9v-28.6c0-2.6-.9-4.8-2.8-6.6s-4.1-2.8-6.7-2.8-4.8.9-6.7,2.7c-1,1-1.7,1.9-2,2.7h0Z"/>
            <path class="cls-1" d="m77.7,253.15v-16.7h9v16.7h8v9h-8v35.6h-9v-35.6h-8v-9h8Z"/>
            <path class="cls-1" d="m119,287.65c1.5,1.3,4.2,2,8.2,2,4.3,0,7.9-1.5,11-4.5.4-.4,1.1-1.3,2.3-2.7l9,3.2c-2.2,3-3.8,5-4.8,6-4.8,4.8-10.6,7.2-17.5,7.2s-12.6-2.4-17.4-7.2-7.2-10.6-7.2-17.5,2.4-12.6,7.2-17.5c4.8-4.8,10.6-7.2,17.4-7.2,5.8,0,11,1.8,15.3,5.3.7.6,1.4,1.3,2.1,2,.3.3,1.1,1.2,2.5,2.7l-4.5,4.6-23.6,23.6Zm15-27.7c-1-.8-3.3-1.2-6.8-1.2-4.2,0-7.9,1.5-10.9,4.5s-4.5,6.7-4.5,10.9c0,3.5.4,5.8,1.2,6.8l21-21Z"/>
            <path class="cls-1" d="m168.8,259.15c3.4-4.5,7.5-6.9,12.4-7.2v9.3c-3.3.2-5.9,1.2-7.8,3.2-2.9,2.9-4.4,6.3-4.6,10.3v22.9h-9v-44.6h9v6.1Z"/>
            <path class="cls-1" d="m199.8,265.15v32.6h-9v-44.6h9v5.2c1.9-5.1,5.6-7.6,11.3-7.6,4.8,0,8.7,1.7,11.5,5.1,2.8,3.4,4.3,7.7,4.4,12.9v29h-9v-28.6c0-2.6-.9-4.8-2.8-6.6s-4.1-2.8-6.7-2.8-4.8.9-6.7,2.7c-1,1-1.7,1.9-2,2.7h0Z"/>
            <g>
              <path class="cls-3" d="m239.01,297.6v-69.3h9v60.3h24.8v9h-33.8Z"/>
              <path class="cls-3" d="m292.91,253v44.6h-9v-44.6h9Zm-4.5-18.3c1.7,0,3.2.6,4.5,1.8,1.2,1.2,1.9,2.7,1.9,4.5s-.6,3.3-1.9,4.5-2.7,1.8-4.5,1.8c-1.7,0-3.2-.6-4.4-1.8s-1.9-2.7-1.9-4.5.6-3.3,1.9-4.5,2.7-1.8,4.4-1.8Z"/>
              <path class="cls-3" d="m315.61,265v32.6h-9v-44.6h9v5.2c1.9-5.1,5.6-7.6,11.3-7.6,4.8,0,8.7,1.7,11.5,5.1,2.8,3.4,4.3,7.7,4.4,12.9v29h-9v-28.6c0-2.6-.9-4.8-2.8-6.6s-4.1-2.8-6.7-2.8-4.8.9-6.7,2.7c-1,1-1.7,1.9-2,2.7h0Z"/>
              <path class="cls-3" d="m383.51,253l-12.1,14.9,16.8,29.7h-10.7l-12.1-22.2-.4.5v21.8h-9v-61.3h9v25.1l6.9-8.5h11.6Z"/>
            </g>
          </g>
        </g>
      </g>
    </g>
  </g>
</svg>