<?xml version="1.0" encoding="utf-8"?>
<!-- Generator: Adobe Illustrator 27.3.1, SVG Export Plug-In . SVG Version: 6.00 Build 0)  -->
<svg version="1.1" id="Layer_2_00000020375811757594991850000002305857459745772682_"
	 xmlns="http://www.w3.org/2000/svg" xmlns:xlink="http://www.w3.org/1999/xlink" x="0px" y="0px" viewBox="0 0 388.2 328"
	 style="enable-background:new 0 0 388.2 328;" xml:space="preserve">
<style type="text/css">
	.st0{fill-rule:evenodd;clip-rule:evenodd;fill:#59CBE8;}
	.st1{fill-rule:evenodd;clip-rule:evenodd;fill:#FFFFFF;}
	.st2{fill:#59CBE8;}
	.st3{fill:#FFFFFF;}
</style>
<g id="Layer_4">
	<g>
		<g>
			<path class="st0" d="M298.2-183.1c7.7,0,14.4,4.3,17.8,10.8l2.4-1.4v15.5c0,3.7,3,6.5,6.5,6.5h0.5v-3.5h-0.1
				c-1.8,0-3.3-1.5-3.3-3.3v-17.2l5.8-3.1l-29.7-15l-29.7,15.7l11.8,6.1C283.7-178.6,290.4-183.1,298.2-183.1
				C298.2-183.1,298.2-183.1,298.2-183.1z M298.2-179.7c-9.2,0-16.8,7.6-16.8,16.9s7.5,16.9,16.8,16.9c9.3,0,16.8-7.6,16.8-16.9
				S307.5-179.7,298.2-179.7z M350.2-100.8l-24.7-34.3c0,0-3.3-6.2-10.8-6.5H282c-7.7,0.3-10.8,6.5-10.8,6.5l-24.8,34.3
				c-1.1,1.5-1.6,3.4-1.6,5.4c0,5.3,4.3,9.6,9.6,9.6h13.4v2.4c0,1.4,1.1,2.4,2.4,2.4h56.5c1.4,0,2.4-1.1,2.4-2.4v-2.4h13.4
				c5.3,0,9.6-4.3,9.6-9.6C351.8-97.4,351.3-99.3,350.2-100.8L350.2-100.8L350.2-100.8z M328.9-86h-61.3v-36.9
				c0-1.6,1.4-2.8,2.8-2.8H326c1.6,0,2.8,1.4,2.8,2.8V-86H328.9z M298.2-111.8c-3.5,0-6.5,2.8-6.5,6.5s2.8,6.5,6.5,6.5
				c3.5,0,6.5-3,6.5-6.5S301.8-111.8,298.2-111.8z"/>
			<g>
				<path class="st0" d="M377.5-216c-21-21-49-32.8-78.9-32.8c-10.4,0-20.3,1.4-29.8,4.2l-0.5,0.2l1.6,8.6l0.7-0.2
					c9.3-2.5,18.7-3.9,28-3.9c56.7,0,102.7,46.2,102.7,102.9s-46,102.7-102.7,102.7c-56.7-0.2-102.9-46.2-102.9-102.9
					c0-21.5,6.5-41.9,19-59.4l0.5-0.5l-7.6-4.4l-0.2,0.5c-13.2,18.7-20.3,40.9-20.3,64.1c0,61.3,49.9,111.2,111.2,111.2
					s111.5-49.9,111.5-111.2C410.1-166.9,398.6-194.9,377.5-216L377.5-216L377.5-216z"/>
				<path class="st1" d="M374.1-83l-8.1-4.6v-0.5c10.6-14.8,16.2-31.9,16.2-49.7c0-46.2-37.7-83.9-83.9-83.9s-83.9,37.7-83.9,83.9
					s37.7,83.9,83.9,83.9c8.1,0,16.2-1.4,24-3.7l0.7-0.2l1.9,9.3l-0.5,0.2c-8.1,2.5-16.6,3.7-25.7,3.7c-51.6,0-93.4-41.9-93.4-93.4
					s41.9-93.4,93.4-93.4c25,0,48.6,9.7,66.1,27.5c17.6,17.6,27.1,41.2,26.8,66.4c0,19.7-6,38.4-17.3,54.1L374.1-83L374.1-83z"/>
			</g>
		</g>
		<g id="Lettering">
			<g>
				<g>
					<path class="st2" d="M123.9,77c0.4,0,0.8,0,1.1-0.1c0.3-0.1,0.6-0.2,0.9-0.3v-1.9h-1.2c-0.2,0-0.3,0-0.4-0.1s-0.2-0.2-0.2-0.4
						v-1.6h4.5v5.3c-0.3,0.2-0.7,0.4-1,0.6c-0.3,0.2-0.7,0.3-1.1,0.4s-0.8,0.2-1.3,0.2s-0.9,0.1-1.4,0.1c-0.9,0-1.8-0.2-2.6-0.5
						c-0.8-0.3-1.5-0.8-2-1.3c-0.6-0.6-1-1.2-1.3-2s-0.5-1.6-0.5-2.6c0-0.9,0.2-1.8,0.5-2.6s0.8-1.5,1.3-2c0.6-0.6,1.3-1,2.1-1.3
						c0.8-0.3,1.7-0.5,2.7-0.5c0.5,0,1,0,1.5,0.1s0.9,0.2,1.3,0.4c0.4,0.1,0.7,0.3,1.1,0.5c0.3,0.2,0.6,0.4,0.9,0.7l-0.8,1.3
						c-0.1,0.1-0.2,0.2-0.3,0.3c-0.1,0.1-0.2,0.1-0.4,0.1s-0.4-0.1-0.5-0.2c-0.2-0.1-0.4-0.3-0.7-0.4c-0.2-0.1-0.4-0.2-0.6-0.2
						c-0.2-0.1-0.4-0.1-0.7-0.1H124c-0.5,0-1,0.1-1.5,0.3c-0.4,0.2-0.8,0.5-1.1,0.8c-0.3,0.4-0.5,0.8-0.7,1.3
						c-0.2,0.5-0.2,1-0.2,1.6c0,0.7,0.1,1.3,0.3,1.8c0.2,0.5,0.4,1,0.8,1.3c0.3,0.4,0.7,0.6,1.2,0.8C122.8,76.9,123.3,77,123.9,77
						L123.9,77L123.9,77z"/>
					<path class="st2" d="M147.2,66.6v2.2H142v2.9h3.9v2.2H142v3h5.2v2.2h-8.1V66.5L147.2,66.6L147.2,66.6L147.2,66.6z"/>
					<path class="st2" d="M166.4,66.6v2.3h-3.5v10.2H160V68.9h-3.5v-2.3H166.4z"/>
					<path class="st2" d="M192,74.3v4.8h-2.9v-4.8l-4.6-7.8h2.6c0.3,0,0.5,0.1,0.6,0.2c0.1,0.1,0.3,0.3,0.4,0.5l1.8,3.7
						c0.1,0.3,0.3,0.6,0.4,0.8c0.1,0.2,0.2,0.5,0.3,0.7c0.1-0.2,0.2-0.5,0.3-0.7c0.1-0.2,0.2-0.5,0.4-0.8l1.8-3.7
						c0-0.1,0.1-0.1,0.1-0.2c0.1-0.1,0.1-0.1,0.2-0.2c0.1-0.1,0.2-0.1,0.3-0.1s0.2-0.1,0.3-0.1h2.6L192,74.3L192,74.3z"/>
					<path class="st2" d="M218.3,72.8c0,0.9-0.2,1.8-0.5,2.5c-0.3,0.7-0.8,1.5-1.3,2c-0.6,0.6-1.3,1-2.1,1.4s-1.7,0.5-2.7,0.5
						s-1.9-0.2-2.7-0.5s-1.5-0.8-2.1-1.4c-0.6-0.6-1-1.3-1.3-2c-0.3-0.8-0.5-1.6-0.5-2.5s0.2-1.8,0.5-2.5c0.3-0.8,0.8-1.5,1.3-2
						s1.3-1,2.1-1.4c0.8-0.3,1.7-0.5,2.7-0.5s1.9,0.2,2.7,0.5s1.5,0.8,2.1,1.4c0.6,0.6,1,1.3,1.3,2
						C218.2,71.1,218.3,71.9,218.3,72.8L218.3,72.8z M215.3,72.8c0-0.6-0.1-1.2-0.2-1.7c-0.2-0.5-0.4-0.9-0.7-1.3
						c-0.3-0.4-0.7-0.6-1.1-0.8s-0.9-0.3-1.5-0.3s-1.1,0.1-1.5,0.3s-0.8,0.4-1.1,0.8c-0.3,0.3-0.5,0.8-0.7,1.3
						c-0.2,0.5-0.2,1.1-0.2,1.7s0.1,1.2,0.2,1.7c0.1,0.5,0.4,0.9,0.7,1.3c0.3,0.3,0.7,0.6,1.1,0.8s0.9,0.3,1.5,0.3s1.1-0.1,1.5-0.3
						s0.8-0.4,1.1-0.8c0.3-0.4,0.5-0.8,0.7-1.3C215.3,74,215.3,73.5,215.3,72.8z"/>
					<path class="st2" d="M234.5,76.8c0.4,0,0.7-0.1,1-0.2s0.6-0.3,0.8-0.6c0.2-0.2,0.4-0.5,0.5-0.9s0.2-0.7,0.2-1.2v-7.4h2.9v7.4
						c0,0.8-0.1,1.5-0.4,2.1c-0.2,0.6-0.6,1.2-1.1,1.7s-1,0.8-1.7,1.1s-1.4,0.4-2.2,0.4s-1.6-0.1-2.3-0.4s-1.2-0.6-1.7-1.1
						s-0.8-1-1.1-1.7c-0.2-0.6-0.4-1.4-0.4-2.1v-7.4h2.9v7.4c0,0.4,0.1,0.8,0.2,1.2c0.1,0.3,0.3,0.6,0.5,0.9
						c0.2,0.2,0.5,0.4,0.8,0.6C233.8,76.7,234.1,76.8,234.5,76.8L234.5,76.8L234.5,76.8z"/>
					<path class="st2" d="M254,74.5v4.6h-2.9V66.5h4.1c0.9,0,1.7,0.1,2.3,0.3s1.2,0.4,1.6,0.8c0.4,0.3,0.7,0.7,0.9,1.2
						s0.3,0.9,0.3,1.5c0,0.4-0.1,0.8-0.2,1.2s-0.3,0.7-0.5,1s-0.5,0.6-0.8,0.8c-0.3,0.2-0.7,0.4-1.1,0.6c0.2,0.1,0.4,0.2,0.5,0.4
						c0.2,0.1,0.3,0.3,0.4,0.5l2.7,4.4h-2.6c-0.5,0-0.8-0.2-1.1-0.6l-2.1-3.6c-0.1-0.2-0.2-0.3-0.3-0.3c-0.1-0.1-0.3-0.1-0.5-0.1
						L254,74.5L254,74.5L254,74.5L254,74.5z M254,72.5h1.2c0.4,0,0.7-0.1,1-0.2c0.3-0.1,0.5-0.2,0.7-0.4c0.2-0.2,0.3-0.4,0.4-0.6
						c0.1-0.2,0.1-0.5,0.1-0.8c0-0.6-0.2-1-0.5-1.3c-0.3-0.3-0.9-0.5-1.7-0.5H254V72.5z"/>
					<path class="st2" d="M282.9,79.1H280V66.5h2.9V79.1z"/>
					<path class="st2" d="M294.9,66.6h0.3c0.1,0,0.2,0,0.2,0.1c0.1,0,0.1,0.1,0.2,0.1s0.1,0.1,0.2,0.2l6,7.5c0-0.2,0-0.5-0.1-0.7
						v-7.2h2.6v12.6h-1.5c-0.2,0-0.4,0-0.6-0.1s-0.3-0.2-0.4-0.4l-5.9-7.5v7.9h-2.6V66.5L294.9,66.6z"/>
					<path class="st2" d="M324.6,66.6v2.3h-3.5v10.2h-2.9V68.9h-3.5v-2.3H324.6z"/>
					<path class="st2" d="M342.4,66.6v2.2h-5.2v2.9h3.9v2.2h-3.9v3h5.2v2.2h-8.1V66.5L342.4,66.6L342.4,66.6L342.4,66.6z"/>
					<path class="st2" d="M355.7,74.5v4.6h-2.9V66.5h4.1c0.9,0,1.7,0.1,2.3,0.3c0.6,0.2,1.2,0.4,1.6,0.8c0.4,0.3,0.7,0.7,0.9,1.2
						s0.3,0.9,0.3,1.5c0,0.4-0.1,0.8-0.2,1.2c-0.1,0.4-0.3,0.7-0.5,1s-0.5,0.6-0.8,0.8s-0.7,0.4-1.1,0.6c0.2,0.1,0.4,0.2,0.5,0.4
						c0.2,0.1,0.3,0.3,0.4,0.5l2.7,4.4h-2.6c-0.5,0-0.8-0.2-1.1-0.6l-2.1-3.6c-0.1-0.2-0.2-0.3-0.3-0.3c-0.1-0.1-0.3-0.1-0.5-0.1
						L355.7,74.5L355.7,74.5L355.7,74.5L355.7,74.5z M355.7,72.5h1.2c0.4,0,0.7-0.1,1-0.2c0.3-0.1,0.5-0.2,0.7-0.4s0.3-0.4,0.4-0.6
						s0.1-0.5,0.1-0.8c0-0.6-0.2-1-0.5-1.3s-0.9-0.5-1.7-0.5h-1.2V72.5z"/>
					<path class="st2" d="M374.9,66.6h0.3c0.1,0,0.2,0,0.2,0.1c0.1,0,0.1,0.1,0.2,0.1c0.1,0.1,0.1,0.1,0.2,0.2l6,7.5
						c0-0.2,0-0.5-0.1-0.7v-7.2h2.6v12.6h-1.5c-0.2,0-0.4,0-0.6-0.1s-0.3-0.2-0.4-0.4l-5.9-7.5v7.9h-2.6V66.5L374.9,66.6L374.9,66.6
						z"/>
					<path class="st2" d="M402.2,69.1c-0.1,0.1-0.2,0.2-0.3,0.3c-0.1,0.1-0.2,0.1-0.4,0.1c-0.1,0-0.3,0-0.4-0.1
						c-0.1-0.1-0.3-0.2-0.5-0.3s-0.4-0.2-0.7-0.3c-0.3-0.1-0.5-0.1-0.8-0.1c-0.5,0-1,0.1-1.2,0.3c-0.3,0.2-0.4,0.5-0.4,0.9
						c0,0.3,0.1,0.5,0.2,0.6c0.1,0.1,0.4,0.3,0.6,0.4c0.3,0.1,0.6,0.2,0.9,0.3s0.7,0.2,1,0.3c0.4,0.1,0.7,0.3,1,0.4
						c0.3,0.2,0.6,0.4,0.9,0.6c0.3,0.3,0.5,0.6,0.6,0.9c0.2,0.4,0.2,0.8,0.2,1.3c0,0.6-0.1,1.1-0.3,1.6c-0.2,0.5-0.5,0.9-0.9,1.3
						c-0.4,0.4-0.9,0.7-1.4,0.9s-1.2,0.3-1.9,0.3c-0.4,0-0.8,0-1.2-0.1l-1.2-0.3c-0.4-0.1-0.7-0.3-1.1-0.5c-0.4-0.2-0.6-0.4-0.9-0.7
						l0.9-1.4c0.1-0.1,0.2-0.2,0.3-0.2c0.1-0.1,0.2-0.1,0.4-0.1c0.2,0,0.3,0.1,0.5,0.2s0.4,0.2,0.6,0.4s0.5,0.3,0.8,0.4
						s0.6,0.2,1,0.2c0.5,0,0.9-0.1,1.2-0.3c0.3-0.2,0.4-0.6,0.4-1.1c0-0.3-0.1-0.5-0.2-0.7c-0.2-0.2-0.4-0.3-0.6-0.5
						c-0.3-0.1-0.6-0.2-0.9-0.3s-0.7-0.2-1-0.3c-0.4-0.1-0.7-0.2-1-0.4s-0.6-0.4-0.9-0.6c-0.3-0.3-0.5-0.6-0.6-1
						c-0.1-0.4-0.2-0.9-0.2-1.5c0-0.5,0.1-0.9,0.3-1.4c0.2-0.4,0.5-0.8,0.8-1.2c0.4-0.4,0.8-0.6,1.4-0.8c0.5-0.2,1.1-0.3,1.8-0.3
						c0.4,0,0.8,0,1.1,0.1c0.4,0.1,0.7,0.1,1,0.3s0.6,0.3,0.9,0.4s0.5,0.3,0.8,0.6L402.2,69.1L402.2,69.1z"/>
					<path class="st2" d="M424.4,79.1h-2.9v-5.3h-5.1v5.3h-2.9V66.5h2.9v5.2h5.1v-5.2h2.9V79.1z"/>
					<path class="st2" d="M437.9,79.1H435V66.5h2.9V79.1z"/>
					<path class="st2" d="M451,74.9v4.2h-2.9V66.5h4.4c0.9,0,1.6,0.1,2.3,0.3c0.7,0.2,1.2,0.5,1.6,0.9c0.4,0.4,0.7,0.8,0.9,1.3
						s0.3,1,0.3,1.6s-0.1,1.2-0.3,1.7c-0.2,0.5-0.5,1-0.9,1.3c-0.4,0.3-0.9,0.7-1.6,0.9c-0.6,0.2-1.4,0.3-2.3,0.3L451,74.9L451,74.9
						L451,74.9z M451,72.7h1.5c0.8,0,1.3-0.2,1.6-0.5c0.3-0.4,0.5-0.9,0.5-1.5c0-0.3,0-0.5-0.1-0.8c-0.1-0.2-0.2-0.4-0.4-0.6
						s-0.4-0.3-0.7-0.4c-0.3-0.1-0.6-0.1-1-0.1h-1.5L451,72.7L451,72.7z"/>
				</g>
				<g>
					<path class="st3" d="M113.4-20.4v69.3h-9v-69.3L113.4-20.4L113.4-20.4z"/>
					<path class="st3" d="M136.3,16.4V49h-9V4.4h9v5.2c1.9-5.1,5.6-7.6,11.3-7.6c4.8,0,8.7,1.7,11.5,5.1c2.8,3.4,4.3,7.7,4.4,12.9
						v29h-9V20.4c0-2.6-0.9-4.8-2.8-6.6S147.6,11,145,11c-2.6,0-4.8,0.9-6.7,2.7C137.3,14.7,136.6,15.6,136.3,16.4L136.3,16.4
						L136.3,16.4z"/>
					<path class="st3" d="M182.1,4.4v-16.7h9V4.4h8v9h-8V49h-9V13.4h-8v-9H182.1z"/>
					<path class="st3" d="M223.4,38.9c1.5,1.3,4.2,2,8.2,2c4.3,0,7.9-1.5,11-4.5c0.4-0.4,1.1-1.3,2.3-2.7l9,3.2c-2.2,3-3.8,5-4.8,6
						c-4.8,4.8-10.6,7.2-17.5,7.2s-12.6-2.4-17.4-7.2c-4.8-4.8-7.2-10.6-7.2-17.5s2.4-12.6,7.2-17.5c4.8-4.8,10.6-7.2,17.4-7.2
						c5.8,0,11,1.8,15.3,5.3c0.7,0.6,1.4,1.3,2.1,2c0.3,0.3,1.1,1.2,2.5,2.7l-4.5,4.6L223.4,38.9L223.4,38.9z M238.4,11.2
						c-1-0.8-3.3-1.2-6.8-1.2c-4.2,0-7.9,1.5-10.9,4.5s-4.5,6.7-4.5,10.9c0,3.5,0.4,5.8,1.2,6.8L238.4,11.2L238.4,11.2z"/>
					<path class="st3" d="M273.2,10.4c3.4-4.5,7.5-6.9,12.4-7.2v9.3c-3.3,0.2-5.9,1.2-7.8,3.2c-2.9,2.9-4.4,6.3-4.6,10.3v22.9h-9
						V4.3h9L273.2,10.4L273.2,10.4z"/>
					<path class="st3" d="M304.2,16.4V49h-9V4.4h9v5.2c1.9-5.1,5.6-7.6,11.3-7.6c4.8,0,8.7,1.7,11.5,5.1c2.8,3.4,4.3,7.7,4.4,12.9
						v29h-9V20.4c0-2.6-0.9-4.8-2.8-6.6s-4.1-2.8-6.7-2.8c-2.6,0-4.8,0.9-6.7,2.7C305.2,14.7,304.5,15.6,304.2,16.4L304.2,16.4
						L304.2,16.4z"/>
					<g>
						<path class="st2" d="M343.4,48.8v-69.3h9v60.3h24.8v9H343.4z"/>
						<path class="st2" d="M397.3,4.2v44.6h-9V4.2H397.3z M392.8-14.1c1.7,0,3.2,0.6,4.5,1.8c1.2,1.2,1.9,2.7,1.9,4.5
							s-0.6,3.3-1.9,4.5s-2.7,1.8-4.5,1.8c-1.7,0-3.2-0.6-4.4-1.8c-1.2-1.2-1.9-2.7-1.9-4.5s0.6-3.3,1.9-4.5S391.1-14.1,392.8-14.1z
							"/>
						<path class="st2" d="M420,16.2v32.6h-9V4.2h9v5.2c1.9-5.1,5.6-7.6,11.3-7.6c4.8,0,8.7,1.7,11.5,5.1c2.8,3.4,4.3,7.7,4.4,12.9
							v29h-9V20.2c0-2.6-0.9-4.8-2.8-6.6c-1.9-1.8-4.1-2.8-6.7-2.8c-2.6,0-4.8,0.9-6.7,2.7C421,14.5,420.3,15.4,420,16.2L420,16.2
							L420,16.2z"/>
						<path class="st2" d="M487.9,4.2l-12.1,14.9l16.8,29.7h-10.7l-12.1-22.2l-0.4,0.5v21.8h-9v-61.3h9v25.1l6.9-8.5L487.9,4.2
							L487.9,4.2z"/>
					</g>
				</g>
			</g>
		</g>
	</g>
</g>
</svg>
