<?xml version="1.0" encoding="UTF-8"?>
<svg id="Layer_2" data-name="Layer 2" xmlns="http://www.w3.org/2000/svg" viewBox="0 0 275.32 275.6">
  <defs>
    <style>
      .cls-1 {
        fill: #fff;
      }

      .cls-1, .cls-2 {
        fill-rule: evenodd;
      }

      .cls-2 {
        fill: #59cbe8;
      }
    </style>
  </defs>
  <g id="Layer_3" data-name="Layer 3">
    <g>
      <path class="cls-2" d="m137.4,81.3c9.6,0,17.8,5.4,22,13.4l3-1.7v19.1c0,4.5,3.7,8,8,8h.7v-4.4h-.2c-2.2,0-4-1.8-4-4v-21.3l7.2-3.9-36.7-18.6-36.7,19.6,14.6,7.5c4.2-8.2,12.4-13.7,22.1-13.7h0Zm0,4.2c-11.4,0-20.8,9.4-20.8,21s9.2,21,20.8,21,20.8-9.4,20.8-21-9.4-21-20.8-21Zm64.3,97.5l-30.6-42.4s-4-7.7-13.4-8h-40.4c-9.6.3-13.4,8-13.4,8l-30.7,42.4c-1.3,1.8-2,4.2-2,6.7,0,6.5,5.4,11.9,11.9,11.9h16.6v3c0,1.7,1.3,3,3,3h70c1.7,0,3-1.3,3-3v-3h16.6c6.5,0,11.9-5.4,11.9-11.9-.5-2.5-1.2-4.8-2.5-6.7h0Zm-26.4,18.3h-75.8v-45.6c0-2,1.7-3.5,3.5-3.5h68.7c2,0,3.5,1.7,3.5,3.5v45.6h.1Zm-37.9-31.9c-4.4,0-8,3.5-8,8s3.5,8,8,8,8-3.7,8-8c.1-4.3-3.6-8-8-8Z"/>
      <g>
        <path class="cls-2" d="m235.6,40.6C209.6,14.6,175,0,138.1,0c-12.9,0-25.2,1.7-36.9,5.1l-.6.3,2,10.6.9-.3c11.4-3.1,23.2-4.9,34.6-4.9,70.1,0,127,57.2,127,127.2s-56.9,127-127,127c-70.1-.3-127.2-57.2-127.2-127.2,0-26.6,8-51.8,23.4-73.5l.6-.6-9.4-5.4-.3.6C8.9,82.1,0,109.5,0,138.1c0,75.8,61.8,137.5,137.5,137.5s137.8-61.8,137.8-137.5c.6-36.9-13.7-71.5-39.7-97.5h0Z"/>
        <path class="cls-1" d="m231.3,205l-10-5.7v-.6c13.2-18.3,20-39.5,20-61.5,0-57.2-46.6-103.8-103.8-103.8s-103.8,46.6-103.8,103.8,46.6,103.8,103.8,103.8c10,0,20-1.7,29.7-4.6l.9-.3,2.3,11.4-.6.3c-10,3.1-20.6,4.6-31.7,4.6-63.8,0-115.5-51.8-115.5-115.5S74.4,21.4,138.1,21.4c30.9,0,60,12,81.8,34,21.7,21.7,33.5,50.9,33.2,82.1,0,24.3-7.4,47.5-21.4,66.9l-.4.6Z"/>
      </g>
    </g>
  </g>
</svg>