<?xml version="1.0" encoding="UTF-8"?>
<svg id="Layer_2" data-name="Layer 2" xmlns="http://www.w3.org/2000/svg" viewBox="0 0 388.21 99.65">
  <defs>
    <style>
      .cls-1 {
        fill: #fff;
      }

      .cls-2 {
        fill: #59cbe8;
      }
    </style>
  </defs>
  <g id="Layer_2-2" data-name="Layer 2">
    <g>
      <g>
        <path class="cls-2" d="m19.5,97.45c.4,0,.8,0,1.1-.1.3-.1.6-.2.9-.3v-1.9h-1.2c-.2,0-.3,0-.4-.1s-.2-.2-.2-.4v-1.6h4.5v5.3c-.3.2-.7.4-1,.6-.3.2-.7.3-1.1.4-.4.1-.8.2-1.3.2s-.9.1-1.4.1c-.9,0-1.8-.2-2.6-.5-.8-.3-1.5-.8-2-1.3-.6-.6-1-1.2-1.3-2s-.5-1.6-.5-2.6c0-.9.2-1.8.5-2.6s.8-1.5,1.3-2c.6-.6,1.3-1,2.1-1.3.8-.3,1.7-.5,2.7-.5.5,0,1,0,1.5.1s.9.2,1.3.4c.4.1.7.3,1.1.5.3.2.6.4.9.7l-.8,1.3c-.1.1-.2.2-.3.3-.1.1-.2.1-.4.1s-.4-.1-.5-.2c-.2-.1-.4-.3-.7-.4-.2-.1-.4-.2-.6-.2-.2-.1-.4-.1-.7-.1h-.8c-.5,0-1,.1-1.5.3-.4.2-.8.5-1.1.8-.3.4-.5.8-.7,1.3s-.2,1-.2,1.6c0,.7.1,1.3.3,1.8.2.5.4,1,.8,1.3.3.4.7.6,1.2.8,0,.1.5.2,1.1.2h0Z"/>
        <path class="cls-2" d="m42.8,87.05v2.2h-5.2v2.9h3.9v2.2h-3.9v3h5.2v2.2h-8.1v-12.6l8.1.1h0Z"/>
        <path class="cls-2" d="m62,87.05v2.3h-3.5v10.2h-2.9v-10.2h-3.5v-2.3h9.9Z"/>
        <path class="cls-2" d="m87.6,94.75v4.8h-2.9v-4.8l-4.6-7.8h2.6c.3,0,.5.1.6.2.1.1.3.3.4.5l1.8,3.7c.1.3.3.6.4.8s.2.5.3.7c.1-.2.2-.5.3-.7.1-.2.2-.5.4-.8l1.8-3.7c0-.1.1-.1.1-.2q.1-.1.2-.2c.1-.1.2-.1.3-.1s.2-.1.3-.1h2.6l-4.6,7.7Z"/>
        <path class="cls-2" d="m113.9,93.25c0,.9-.2,1.8-.5,2.5s-.8,1.5-1.3,2c-.6.6-1.3,1-2.1,1.4s-1.7.5-2.7.5-1.9-.2-2.7-.5c-.8-.3-1.5-.8-2.1-1.4s-1-1.3-1.3-2c-.3-.8-.5-1.6-.5-2.5s.2-1.8.5-2.5c.3-.8.8-1.5,1.3-2s1.3-1,2.1-1.4c.8-.3,1.7-.5,2.7-.5s1.9.2,2.7.5,1.5.8,2.1,1.4c.6.6,1,1.3,1.3,2,.4.8.5,1.6.5,2.5h0Zm-3,0c0-.6-.1-1.2-.2-1.7-.2-.5-.4-.9-.7-1.3s-.7-.6-1.1-.8-.9-.3-1.5-.3-1.1.1-1.5.3-.8.4-1.1.8c-.3.3-.5.8-.7,1.3s-.2,1.1-.2,1.7.1,1.2.2,1.7.4.9.7,1.3c.3.3.7.6,1.1.8s.9.3,1.5.3,1.1-.1,1.5-.3.8-.4,1.1-.8.5-.8.7-1.3c.2-.5.2-1,.2-1.7Z"/>
        <path class="cls-2" d="m130.1,97.25c.4,0,.7-.1,1-.2.3-.1.6-.3.8-.6.2-.2.4-.5.5-.9s.2-.7.2-1.2v-7.4h2.9v7.4c0,.8-.1,1.5-.4,2.1-.2.6-.6,1.2-1.1,1.7s-1,.8-1.7,1.1-1.4.4-2.2.4-1.6-.1-2.3-.4c-.7-.3-1.2-.6-1.7-1.1s-.8-1-1.1-1.7c-.2-.6-.4-1.4-.4-2.1v-7.4h2.9v7.4c0,.4.1.8.2,1.2.1.3.3.6.5.9.2.2.5.4.8.6.4.1.7.2,1.1.2h0Z"/>
        <path class="cls-2" d="m149.6,94.95v4.6h-2.9v-12.6h4.1c.9,0,1.7.1,2.3.3s1.2.4,1.6.8c.4.3.7.7.9,1.2s.3.9.3,1.5c0,.4-.1.8-.2,1.2s-.3.7-.5,1-.5.6-.8.8-.7.4-1.1.6c.2.1.4.2.5.4.2.1.3.3.4.5l2.7,4.4h-2.6c-.5,0-.8-.2-1.1-.6l-2.1-3.6c-.1-.2-.2-.3-.3-.3-.1-.1-.3-.1-.5-.1h-.7v-.1h0Zm0-2h1.2c.4,0,.7-.1,1-.2.3-.1.5-.2.7-.4s.3-.4.4-.6.1-.5.1-.8c0-.6-.2-1-.5-1.3s-.9-.5-1.7-.5h-1.2v3.8Z"/>
        <path class="cls-2" d="m178.5,99.55h-2.9v-12.6h2.9v12.6Z"/>
        <path class="cls-2" d="m190.5,87.05h.3c.1,0,.2,0,.2.1.1,0,.1.1.2.1s.1.1.2.2l6,7.5c0-.2,0-.5-.1-.7v-7.2h2.6v12.6h-1.5c-.2,0-.4,0-.6-.1s-.3-.2-.4-.4l-5.9-7.5v7.9h-2.6v-12.6l1.6.1Z"/>
        <path class="cls-2" d="m220.2,87.05v2.3h-3.5v10.2h-2.9v-10.2h-3.5v-2.3h9.9Z"/>
        <path class="cls-2" d="m238,87.05v2.2h-5.2v2.9h3.9v2.2h-3.9v3h5.2v2.2h-8.1v-12.6l8.1.1h0Z"/>
        <path class="cls-2" d="m251.3,94.95v4.6h-2.9v-12.6h4.1c.9,0,1.7.1,2.3.3s1.2.4,1.6.8c.4.3.7.7.9,1.2.2.5.3.9.3,1.5,0,.4-.1.8-.2,1.2s-.3.7-.5,1-.5.6-.8.8-.7.4-1.1.6c.2.1.4.2.5.4.2.1.3.3.4.5l2.7,4.4h-2.6c-.5,0-.8-.2-1.1-.6l-2.1-3.6c-.1-.2-.2-.3-.3-.3-.1-.1-.3-.1-.5-.1h-.7v-.1h0Zm0-2h1.2c.4,0,.7-.1,1-.2.3-.1.5-.2.7-.4s.3-.4.4-.6.1-.5.1-.8c0-.6-.2-1-.5-1.3s-.9-.5-1.7-.5h-1.2v3.8Z"/>
        <path class="cls-2" d="m270.5,87.05h.3c.1,0,.2,0,.2.1.1,0,.1.1.2.1q.1.1.2.2l6,7.5c0-.2,0-.5-.1-.7v-7.2h2.6v12.6h-1.5c-.2,0-.4,0-.6-.1s-.3-.2-.4-.4l-5.9-7.5v7.9h-2.6v-12.6l1.6.1Z"/>
        <path class="cls-2" d="m297.8,89.55c-.1.1-.2.2-.3.3-.1.1-.2.1-.4.1-.1,0-.3,0-.4-.1s-.3-.2-.5-.3-.4-.2-.7-.3-.5-.1-.8-.1c-.5,0-1,.1-1.2.3-.3.2-.4.5-.4.9,0,.3.1.5.2.6s.4.3.6.4c.3.1.6.2.9.3s.7.2,1,.3c.4.1.7.3,1,.4.3.2.6.4.9.6.3.3.5.6.6.9.2.4.2.8.2,1.3,0,.6-.1,1.1-.3,1.6-.2.5-.5.9-.9,1.3s-.9.7-1.4.9-1.2.3-1.9.3c-.4,0-.8,0-1.2-.1l-1.2-.3c-.4-.1-.7-.3-1.1-.5s-.6-.4-.9-.7l.9-1.4c.1-.1.2-.2.3-.2.1-.1.2-.1.4-.1s.3.1.5.2c.2.1.4.2.6.4s.5.3.8.4c.3.1.6.2,1,.2.5,0,.9-.1,1.2-.3.3-.2.4-.6.4-1.1,0-.3-.1-.5-.2-.7-.2-.2-.4-.3-.6-.5-.3-.1-.6-.2-.9-.3s-.7-.2-1-.3c-.4-.1-.7-.2-1-.4s-.6-.4-.9-.6c-.3-.3-.5-.6-.6-1s-.2-.9-.2-1.5c0-.5.1-.9.3-1.4.2-.4.5-.8.8-1.2.4-.4.8-.6,1.4-.8.5-.2,1.1-.3,1.8-.3.4,0,.8,0,1.1.1.4.1.7.1,1,.3s.6.3.9.4.5.3.8.6l-.6,1.4Z"/>
        <path class="cls-2" d="m320,99.55h-2.9v-5.3h-5.1v5.3h-2.9v-12.6h2.9v5.2h5.1v-5.2h2.9v12.6Z"/>
        <path class="cls-2" d="m333.5,99.55h-2.9v-12.6h2.9v12.6Z"/>
        <path class="cls-2" d="m346.6,95.35v4.2h-2.9v-12.6h4.4c.9,0,1.6.1,2.3.3s1.2.5,1.6.9.7.8.9,1.3c.2.5.3,1,.3,1.6s-.1,1.2-.3,1.7c-.2.5-.5,1-.9,1.3s-.9.7-1.6.9c-.6.2-1.4.3-2.3.3l-1.5.1h0Zm0-2.2h1.5c.8,0,1.3-.2,1.6-.5.3-.4.5-.9.5-1.5,0-.3,0-.5-.1-.8-.1-.2-.2-.4-.4-.6-.2-.2-.4-.3-.7-.4s-.6-.1-1-.1h-1.5l.1,3.9h0Z"/>
      </g>
      <g>
        <path class="cls-1" d="m9,.05v69.3H0V.05h9Z"/>
        <path class="cls-1" d="m31.9,36.85v32.6h-9V24.85h9v5.2c1.9-5.1,5.6-7.6,11.3-7.6,4.8,0,8.7,1.7,11.5,5.1,2.8,3.4,4.3,7.7,4.4,12.9v29h-9v-28.6c0-2.6-.9-4.8-2.8-6.6s-4.1-2.8-6.7-2.8-4.8.9-6.7,2.7c-1,1-1.7,1.9-2,2.7h0Z"/>
        <path class="cls-1" d="m77.7,24.85V8.15h9v16.7h8v9h-8v35.6h-9v-35.6h-8v-9h8Z"/>
        <path class="cls-1" d="m119,59.35c1.5,1.3,4.2,2,8.2,2,4.3,0,7.9-1.5,11-4.5.4-.4,1.1-1.3,2.3-2.7l9,3.2c-2.2,3-3.8,5-4.8,6-4.8,4.8-10.6,7.2-17.5,7.2s-12.6-2.4-17.4-7.2-7.2-10.6-7.2-17.5,2.4-12.6,7.2-17.5c4.8-4.8,10.6-7.2,17.4-7.2,5.8,0,11,1.8,15.3,5.3.7.6,1.4,1.3,2.1,2,.3.3,1.1,1.2,2.5,2.7l-4.5,4.6-23.6,23.6Zm15-27.7c-1-.8-3.3-1.2-6.8-1.2-4.2,0-7.9,1.5-10.9,4.5s-4.5,6.7-4.5,10.9c0,3.5.4,5.8,1.2,6.8l21-21Z"/>
        <path class="cls-1" d="m168.8,30.85c3.4-4.5,7.5-6.9,12.4-7.2v9.3c-3.3.2-5.9,1.2-7.8,3.2-2.9,2.9-4.4,6.3-4.6,10.3v22.9h-9V24.75h9v6.1Z"/>
        <path class="cls-1" d="m199.8,36.85v32.6h-9V24.85h9v5.2c1.9-5.1,5.6-7.6,11.3-7.6,4.8,0,8.7,1.7,11.5,5.1,2.8,3.4,4.3,7.7,4.4,12.9v29h-9v-28.6c0-2.6-.9-4.8-2.8-6.6s-4.1-2.8-6.7-2.8-4.8.9-6.7,2.7c-1,1-1.7,1.9-2,2.7h0Z"/>
        <g>
          <path class="cls-2" d="m239.01,69.3V0h9v60.3h24.8v9h-33.8Z"/>
          <path class="cls-2" d="m292.91,24.7v44.6h-9V24.7h9Zm-4.5-18.3c1.7,0,3.2.6,4.5,1.8,1.2,1.2,1.9,2.7,1.9,4.5s-.6,3.3-1.9,4.5-2.7,1.8-4.5,1.8c-1.7,0-3.2-.6-4.4-1.8s-1.9-2.7-1.9-4.5.6-3.3,1.9-4.5,2.7-1.8,4.4-1.8Z"/>
          <path class="cls-2" d="m315.61,36.7v32.6h-9V24.7h9v5.2c1.9-5.1,5.6-7.6,11.3-7.6,4.8,0,8.7,1.7,11.5,5.1,2.8,3.4,4.3,7.7,4.4,12.9v29h-9v-28.6c0-2.6-.9-4.8-2.8-6.6s-4.1-2.8-6.7-2.8-4.8.9-6.7,2.7c-1,1-1.7,1.9-2,2.7h0Z"/>
          <path class="cls-2" d="m383.51,24.7l-12.1,14.9,16.8,29.7h-10.7l-12.1-22.2-.4.5v21.8h-9V8.1h9v25.1l6.9-8.5h11.6Z"/>
        </g>
      </g>
    </g>
  </g>
</svg>