<?xml version="1.0" encoding="utf-8"?>
<!-- Generator: Adobe Illustrator 27.3.1, SVG Export Plug-In . SVG Version: 6.00 Build 0)  -->
<svg version="1.1" id="meteor-icon-kit__solid-dashboard"
	 xmlns="http://www.w3.org/2000/svg" xmlns:xlink="http://www.w3.org/1999/xlink" x="0px" y="0px" viewBox="0 0 800 800"
	 style="enable-background:new 0 0 800 800;" xml:space="preserve">
<style type="text/css">
	.st0{fill-rule:evenodd;clip-rule:evenodd;fill:#7B93BE;}
</style>
<path class="st0" d="M66.7,0h166.7C270.2,0,300,29.8,300,66.7v166.7c0,36.8-29.8,66.7-66.7,66.7H66.7C29.8,300,0,270.2,0,233.3V66.7
	C0,29.8,29.8,0,66.7,0z M66.7,366.7h166.7c36.8,0,66.7,29.8,66.7,66.7v300c0,36.8-29.8,66.7-66.7,66.7H66.7
	C29.8,800,0,770.2,0,733.3v-300C0,396.5,29.8,366.7,66.7,366.7z M433.3,0h300C770.2,0,800,29.8,800,66.7v366.7
	c0,36.8-29.8,66.7-66.7,66.7h-300c-36.8,0-66.7-29.8-66.7-66.7V66.7C366.7,29.8,396.5,0,433.3,0z M433.3,566.7h300
	c36.8,0,66.7,29.8,66.7,66.7v100c0,36.8-29.8,66.7-66.7,66.7h-300c-36.8,0-66.7-29.8-66.7-66.7v-100
	C366.7,596.5,396.5,566.7,433.3,566.7z"/>
</svg>
