<?xml version="1.0" encoding="utf-8"?>
<!-- Generator: Adobe Illustrator 27.3.1, SVG Export Plug-In . SVG Version: 6.00 Build 0)  -->
<svg version="1.1" id="Layer_1" xmlns="http://www.w3.org/2000/svg" xmlns:xlink="http://www.w3.org/1999/xlink" x="0px" y="0px"
	 viewBox="0 0 800 800" style="enable-background:new 0 0 800 800;" xml:space="preserve">
<style type="text/css">
	.st0{fill-rule:evenodd;clip-rule:evenodd;fill:#0F0F0F;}
</style>
<g>
	<path class="st0" d="M654.5,800H363.6c-20.1,0-36.4-16.3-36.4-36.4s16.3-36.4,36.4-36.4h290.9c20.1,0,36.4-16.3,36.4-36.4V109.1
		c0-20.1-16.3-36.4-36.4-36.4H363.6c-20.1,0-36.4-16.3-36.4-36.4c0-20.1,16.3-36.4,36.4-36.4h290.9c60.3,0,109.1,48.8,109.1,109.1
		v581.8C763.6,751.2,714.8,800,654.5,800z"/>
	<path class="st0" d="M54.1,447.6c-23.7-27.3-23.7-67.9,0-95.3L206,177.1c44.1-50.9,127.7-19.7,127.7,47.6v66.2h218.2
		c40.2,0,72.7,32.6,72.7,72.7v72.7c0,40.2-32.6,72.7-72.7,72.7H333.7v66.2c0,67.3-83.6,98.5-127.7,47.6L54.1,447.6z M129.7,376.2
		c-11.8,13.7-11.8,34,0,47.6L261,575.2v-84.3c0-30.1,24.4-54.5,54.5-54.5h236.4v-72.7H315.5c-30.1,0-54.5-24.4-54.5-54.5v-84.3
		L129.7,376.2z"/>
</g>
</svg>
