<?xml version="1.0" encoding="utf-8"?>
<!-- Generator: Adobe Illustrator 27.3.1, SVG Export Plug-In . SVG Version: 6.00 Build 0)  -->
<svg version="1.1"
	 id="Layer_1" shape-rendering="geometricPrecision" image-rendering="optimizeQuality" text-rendering="geometricPrecision"
	 xmlns="http://www.w3.org/2000/svg" xmlns:xlink="http://www.w3.org/1999/xlink" x="0px" y="0px" viewBox="0 0 512 232.2"
	 style="enable-background:new 0 0 512 232.2;" xml:space="preserve">
<style type="text/css">
	.st0{fill:#7B93BE;}
</style>
<path class="st0" d="M83.7,156.2c-1.1-1.1-2.1-2.4-3-3.6c-2.2-3-4.2-6.1-6.2-9.3l-9.8-15.7c-3.7-5.4-5.7-10.4-5.7-14.4
	s2.2-9.1,6.7-10.2C65.3,97.1,65,91.1,65,85.2c0-3.5,0.1-7.1,0.2-10.5c0.2-2.2,0.6-4.4,1.2-6.5c2.7-8.9,8.7-16.5,16.7-21.2
	c2.8-1.8,5.9-3.2,9.1-4.3c5.7-2.2,3-10.9,9.3-11c14.7-0.4,38.9,12.2,48.4,22.4c6,6.7,9.4,15.2,9.6,24.2l-0.6,25.8
	c2.6,0.6,4.7,2.7,5.3,5.3c0.8,3.2,0,7.5-2.8,13.6c0,0.2-0.2,0.2-0.2,0.4l-11.2,18.5c-2.5,4.2-5.2,8.4-8.1,12.4
	c-3.5,4.7-6.4,3.9-3.4,8.3c0.6,0.8,1.2,1.6,1.9,2.3c-19.1,13.1-22.2,30.7-25.6,49.7c-0.6,3.2-1.1,6.4-1.8,9.5
	c-0.6,2.4-0.7,5.6-1,8.1H0c0-58.8,63.2-40.1,84.6-69.6C87.1,158.9,86.4,159.1,83.7,156.2L83.7,156.2z M219.3,152.9l20.9,54.9
	l10.5-29.9l-5.1-5.6c-3.9-5.7-2.5-12.1,4.6-13.2c2.8-0.4,13.7-0.4,16.3,0.2c6.7,1.5,7.4,7.9,4,13.1l-5.1,5.6l10.5,29.9l18.9-54.9
	c13.6,12.3,50.4,14.7,65.4,23.1c20.8,11.6,20.2,34.3,24.8,55.1H129.1c4.5-20.7,4.1-43.7,24.8-55.1
	C172.4,165.7,204.2,166.5,219.3,152.9L219.3,152.9z M215.4,116.1c-1.9,0-3.4-0.2-5.1-1.1c-2.2-1.2-3.8-3.4-4.9-5.8
	c-2.2-5.1-4-18.3,1.6-22.1l-1.1-0.7l-0.1-1.5c-0.2-2.7-0.3-5.9-0.3-9.3c-0.2-12.5-0.5-27.6-10.8-30.7l-4.4-1.3l2.9-3.5
	c8.3-10,17-18.8,25.8-25.5c9.9-7.6,20-12.7,29.9-14.1c10.2-1.5,20,0.8,29.1,7.9c2.7,2.1,5.3,4.7,7.8,7.6c9.7,0.9,17.6,6,23.3,13.2
	c3.4,4.3,5.9,9.5,7.6,14.9c1.6,5.4,2.3,11.2,2,16.9c-0.6,10.2-4.4,20.1-12.1,27.4c1.4,0,2.6,0.3,3.8,0.9c4.3,2.2,4.4,7.1,3.3,11.2
	c-1.1,3.4-2.5,7.4-3.9,10.7c-1.6,4.5-4,5.3-8.6,4.8C290.9,161.2,228.5,162.7,215.4,116.1L215.4,116.1z M377.4,158.8
	c-1-1.1-2-2.3-2.9-3.5c-2.1-2.9-4.1-5.9-6-8.9l-9.5-15.1c-3.6-5.3-5.5-10.1-5.5-13.9c0-3.8,2.1-8.8,6.5-9.9
	c-0.3-5.7-0.6-11.5-0.6-17.2c0-3.4,0.1-6.8,0.2-10.2c0.2-2.1,0.6-4.2,1.1-6.3c2.6-8.6,8.4-15.9,16.1-20.5c2.7-1.7,5.7-3.1,8.8-4.2
	c5.5-2.1,2.9-10.5,8.9-10.6c14.2-0.4,37.6,11.8,46.7,21.7c5.8,6.4,9.1,14.7,9.3,23.4l-0.6,24.9c2.5,0.6,4.5,2.6,5.1,5.1
	c0.8,3.1,0,7.2-2.7,13.1v0c0,0.2-0.2,0.2-0.2,0.4l-10.8,17.9c-2.5,4-5,8.1-7.9,11.9c-3.4,4.5-6.2,3.7-3.3,8.1
	c20.7,28.5,81.6,10.6,81.6,67.3H402.2l-1-7.4c-0.7-3.4-1.4-6.9-2-10.3c-3.2-18-6.1-34.6-22.6-47.4c0.6-0.7,1.2-1.4,1.7-2.1
	C380.8,161.4,380.1,161.7,377.4,158.8L377.4,158.8z"/>
</svg>
