<?xml version="1.0" encoding="utf-8"?>
<!-- Generator: Adobe Illustrator 27.3.1, SVG Export Plug-In . SVG Version: 6.00 Build 0)  -->
<svg version="1.1" id="Layer_1" xmlns="http://www.w3.org/2000/svg" xmlns:xlink="http://www.w3.org/1999/xlink" x="0px" y="0px"
	 viewBox="0 0 122.9 122.9" style="enable-background:new 0 0 122.9 122.9;" xml:space="preserve">
<style type="text/css">
	.st0{fill-rule:evenodd;clip-rule:evenodd;fill:#7B93BE;}
</style>
<g>
	<path class="st0" d="M101.6,14.7l8.8,8.8c2.3,2.3,2.3,6.1,0,8.4l-7.1,7.1c2,3.7,3.5,7.6,4.4,11.8h9.2c3.3,0,6,2.7,6,6v12.5
		c0,3.3-2.7,6-6,6h-10c-1.2,4.1-3,7.9-5.2,11.4l6.5,6.5c2.3,2.3,2.3,6.1,0,8.4l-8.8,8.8c-2.3,2.3-6.1,2.3-8.4,0l-7.1-7.1
		c-3.7,2-7.6,3.5-11.8,4.4v9.2c0,3.3-2.7,6-6,6H53.6c-3.3,0-6-2.7-6-6v-10c-4.1-1.2-7.9-3-11.4-5.2l-6.5,6.5c-2.3,2.3-6.1,2.3-8.4,0
		l-8.8-8.8c-2.3-2.3-2.3-6.1,0-8.4l7.1-7.1c-2-3.7-3.5-7.6-4.4-11.8H6c-3.3,0-6-2.7-6-6V53.6c0-3.3,2.7-6,6-6h10
		c1.2-4.1,3-7.9,5.2-11.4l-6.5-6.5c-2.3-2.3-2.3-6.1,0-8.4l8.8-8.8c2.3-2.3,6.1-2.3,8.4,0l7.1,7.1c3.7-2,7.6-3.5,11.8-4.4V6
		c0-3.3,2.7-6,6-6h12.5c3.3,0,6,2.7,6,6v10c4.1,1.2,7.9,3,11.4,5.2l6.5-6.5C95.5,12.4,99.3,12.4,101.6,14.7L101.6,14.7z M61.4,36.9
		C75,36.9,86,47.9,86,61.4C86,75,75,86,61.4,86c-13.5,0-24.5-11-24.5-24.5C36.9,47.9,47.9,36.9,61.4,36.9L61.4,36.9z"/>
</g>
</svg>
