<svg width="261" height="52" viewBox="0 0 261 52" fill="none" xmlns="http://www.w3.org/2000/svg">
<path fill-rule="evenodd" clip-rule="evenodd" d="M25.2779 14.9567C27.044 14.9567 28.5525 15.9501 29.3252 17.4219L29.8771 17.1091V20.623C29.8771 21.4508 30.5578 22.0947 31.3489 22.0947H31.4777V21.2852H31.4409C31.0361 21.2852 30.705 20.9541 30.705 20.5494V16.6308L32.0296 15.9133L25.2779 12.4915L18.5262 16.0973L21.2122 17.4771C21.9848 15.9685 23.4934 14.9567 25.2779 14.9567ZM25.2779 15.7294C23.1806 15.7294 21.4513 17.4587 21.4513 19.5927C21.4513 21.7268 23.1438 23.4561 25.2779 23.4561C27.4119 23.4561 29.1045 21.7268 29.1045 19.5927C29.1045 17.4587 27.3751 15.7294 25.2779 15.7294ZM37.1071 33.6664L31.4777 25.8661C31.4777 25.8661 30.7418 24.4495 29.0125 24.3943H21.5801C19.814 24.4495 19.1149 25.8661 19.1149 25.8661L13.4671 33.6664C13.2279 33.9975 13.0991 34.4391 13.0991 34.899C13.0991 36.0948 14.0926 37.0882 15.2884 37.0882H18.3422V37.6401C18.3422 37.9529 18.5814 38.192 18.8942 38.192H31.772C32.0848 38.192 32.3239 37.9529 32.3239 37.6401V37.0882H35.3778C36.5736 37.0882 37.567 36.0948 37.567 34.899C37.4751 34.4391 37.3463 34.0159 37.1071 33.6664ZM32.2503 37.033H18.3055V28.644C18.3055 28.2761 18.6182 28.0001 18.9493 28.0001H31.588C31.956 28.0001 32.2319 28.3129 32.2319 28.644V37.033H32.2503ZM25.2779 31.1644C24.4684 31.1644 23.8061 31.8083 23.8061 32.6362C23.8061 33.464 24.45 34.1079 25.2779 34.1079C26.1058 34.1079 26.7496 33.4272 26.7496 32.6362C26.768 31.8451 26.0874 31.1644 25.2779 31.1644Z" fill="#59CBE8"/>
<path fill-rule="evenodd" clip-rule="evenodd" d="M43.3432 7.46915C38.56 2.68595 32.1946 0 25.4062 0C23.033 0 20.7701 0.312748 18.6177 0.938244L18.5073 0.993434L18.8753 2.94351L19.0408 2.88832C21.1381 2.31801 23.3089 1.98687 25.4062 1.98687C38.3024 1.98687 48.7703 12.5099 48.7703 25.3878C48.7703 38.2656 38.3024 48.7519 25.4062 48.7519C12.5099 48.6967 2.00527 38.2288 2.00527 25.351C2.00527 20.4574 3.47702 15.8214 6.31015 11.8292L6.42053 11.7188L4.69122 10.7254L4.63603 10.8358C1.63733 15.1039 0 20.1446 0 25.4062C0 39.351 11.3693 50.702 25.2958 50.702C39.2223 50.702 50.6468 39.3326 50.6468 25.4062C50.7571 18.6177 48.1264 12.2524 43.3432 7.46915Z" fill="#59CBE8"/>
<path fill-rule="evenodd" clip-rule="evenodd" d="M42.5524 37.7138L40.7127 36.6652V36.5548C43.1411 33.1882 44.3921 29.288 44.3921 25.2407C44.3921 14.7177 35.8191 6.14471 25.296 6.14471C14.773 6.14471 6.20002 14.7177 6.20002 25.2407C6.20002 35.7638 14.773 44.3367 25.296 44.3367C27.1357 44.3367 28.9754 44.024 30.7599 43.4905L30.9255 43.4353L31.3486 45.5325L31.2382 45.5877C29.3986 46.158 27.4485 46.434 25.4064 46.434C13.6692 46.434 4.15796 36.9044 4.15796 25.1855C4.15796 13.4667 13.6876 3.93707 25.4064 3.93707C31.0911 3.93707 36.4446 6.1447 40.4551 10.192C44.4472 14.1842 46.6181 19.5561 46.5629 25.2959C46.5629 29.7664 45.2015 34.0345 42.6259 37.6035L42.5524 37.7138Z" fill="white"/>
<g clip-path="url(#clip0_8_925)">
<path d="M83.9357 50.136C84.1278 50.136 84.3199 50.136 84.4639 50.0846C84.608 50.0331 84.7521 49.9817 84.8961 49.9302V48.9527H84.3199C84.2238 48.9527 84.1758 48.9527 84.1278 48.9013C84.0797 48.8498 84.0317 48.7984 84.0317 48.6955V47.8723H86.1927V50.5991C86.0487 50.702 85.8566 50.8049 85.7125 50.9078C85.5684 51.0107 85.3764 51.0621 85.1843 51.1135C84.9922 51.165 84.8001 51.2164 84.56 51.2164C84.3199 51.2164 84.1278 51.2679 83.8877 51.2679C83.4555 51.2679 83.0232 51.165 82.6391 51.0107C82.2549 50.8563 81.9187 50.5991 81.6786 50.3418C81.3905 50.0331 81.1984 49.7245 81.0543 49.3129C80.9103 48.9013 80.8142 48.4897 80.8142 47.9752C80.8142 47.5122 80.9103 47.0492 81.0543 46.6376C81.1984 46.226 81.4385 45.8659 81.6786 45.6086C81.9668 45.2999 82.3029 45.0941 82.6871 44.9398C83.0713 44.7855 83.5035 44.6826 83.9837 44.6826C84.2238 44.6826 84.4639 44.6826 84.704 44.734C84.9442 44.7855 85.1362 44.8369 85.3283 44.9398C85.5204 44.9912 85.6645 45.0941 85.8566 45.197C86.0007 45.2999 86.1447 45.4028 86.2888 45.5572L85.9046 46.226C85.8566 46.2774 85.8086 46.3289 85.7605 46.3803C85.7125 46.4318 85.6645 46.4318 85.5684 46.4318C85.4724 46.4318 85.3764 46.3803 85.3283 46.3289C85.2323 46.2774 85.1362 46.1745 84.9922 46.1231C84.8961 46.0717 84.8001 46.0202 84.704 46.0202C84.608 45.9688 84.512 45.9688 84.3679 45.9688H83.9837C83.7436 45.9688 83.5035 46.0202 83.2634 46.1231C83.0713 46.226 82.8792 46.3803 82.7351 46.5347C82.591 46.7405 82.495 46.9463 82.399 47.2035C82.3029 47.4607 82.3029 47.718 82.3029 48.0267C82.3029 48.3868 82.3509 48.6955 82.447 48.9527C82.543 49.21 82.6391 49.4672 82.8312 49.6216C82.9752 49.8273 83.1673 49.9302 83.4074 50.0331C83.4074 50.0846 83.6475 50.136 83.9357 50.136Z" fill="#59CBE8"/>
<path d="M95.1249 44.7855V45.9173H92.6278V47.4093H94.5006V48.5412H92.6278V50.0846H95.1249V51.2165H91.2351V44.734L95.1249 44.7855Z" fill="#59CBE8"/>
<path d="M104.345 44.7855V45.9688H102.665V51.2165H101.272V45.9688H99.5911V44.7855H104.345Z" fill="#59CBE8"/>
<path d="M116.639 48.7469V51.2165H115.246V48.7469L113.037 44.734H114.286C114.43 44.734 114.526 44.7855 114.574 44.8369C114.622 44.8884 114.718 44.9913 114.766 45.0941L115.631 46.9977C115.679 47.1521 115.775 47.3064 115.823 47.4093C115.871 47.5122 115.919 47.6665 115.967 47.7694C116.015 47.6665 116.063 47.5122 116.111 47.4093C116.159 47.3064 116.207 47.1521 116.303 46.9977L117.167 45.0941C117.167 45.0427 117.215 45.0427 117.215 44.9912C117.247 44.9569 117.279 44.9227 117.311 44.8884C117.359 44.8369 117.407 44.8369 117.455 44.8369C117.503 44.8369 117.551 44.7855 117.6 44.7855H118.848L116.639 48.7469Z" fill="#59CBE8"/>
<path d="M129.269 47.9752C129.269 48.4383 129.173 48.9013 129.029 49.2614C128.885 49.6216 128.645 50.0331 128.405 50.2904C128.116 50.5991 127.78 50.8049 127.396 51.0107C127.012 51.2164 126.58 51.2679 126.099 51.2679C125.619 51.2679 125.187 51.165 124.803 51.0107C124.419 50.8563 124.082 50.5991 123.794 50.2904C123.506 49.9817 123.314 49.6216 123.17 49.2614C123.026 48.8498 122.93 48.4383 122.93 47.9752C122.93 47.5122 123.026 47.0492 123.17 46.689C123.314 46.2774 123.554 45.9173 123.794 45.6601C124.034 45.4028 124.419 45.1456 124.803 44.9398C125.187 44.7855 125.619 44.6826 126.099 44.6826C126.58 44.6826 127.012 44.7855 127.396 44.9398C127.78 45.0941 128.116 45.3514 128.405 45.6601C128.693 45.9688 128.885 46.3289 129.029 46.689C129.221 47.1006 129.269 47.5122 129.269 47.9752ZM127.828 47.9752C127.828 47.6665 127.78 47.3579 127.732 47.1006C127.636 46.8434 127.54 46.6376 127.396 46.4318C127.252 46.226 127.06 46.1231 126.868 46.0202C126.676 45.9173 126.436 45.8659 126.147 45.8659C125.859 45.8659 125.619 45.9173 125.427 46.0202C125.235 46.1231 125.043 46.226 124.899 46.4318C124.755 46.5861 124.659 46.8434 124.563 47.1006C124.467 47.3579 124.467 47.6665 124.467 47.9752C124.467 48.2839 124.515 48.5926 124.563 48.8498C124.611 49.1071 124.755 49.3129 124.899 49.5187C125.043 49.673 125.235 49.8274 125.427 49.9302C125.619 50.0331 125.859 50.0846 126.147 50.0846C126.436 50.0846 126.676 50.0331 126.868 49.9302C127.06 49.8274 127.252 49.7245 127.396 49.5187C127.54 49.3129 127.636 49.1071 127.732 48.8498C127.828 48.5926 127.828 48.3354 127.828 47.9752Z" fill="#59CBE8"/>
<path d="M137.049 50.0331C137.241 50.0331 137.385 49.9817 137.529 49.9303C137.673 49.8788 137.817 49.7759 137.913 49.6216C138.009 49.5187 138.105 49.3643 138.153 49.1585C138.201 48.9527 138.249 48.7984 138.249 48.5412V44.734H139.642V48.5412C139.642 48.9527 139.594 49.3129 139.45 49.6216C139.354 49.9303 139.162 50.2389 138.922 50.4962C138.681 50.7534 138.441 50.9078 138.105 51.0621C137.769 51.2165 137.433 51.2679 137.049 51.2679C136.665 51.2679 136.28 51.2165 135.944 51.0621C135.608 50.9078 135.368 50.7534 135.128 50.4962C134.888 50.2389 134.744 49.9817 134.6 49.6216C134.504 49.3129 134.407 48.9013 134.407 48.5412V44.734H135.8V48.5412C135.8 48.7469 135.848 48.9527 135.896 49.1585C135.944 49.3129 136.04 49.4672 136.136 49.6216C136.232 49.7245 136.376 49.8274 136.52 49.9303C136.713 49.9817 136.857 50.0331 137.049 50.0331Z" fill="#59CBE8"/>
<path d="M146.413 48.8498V51.2165H145.021V44.734H146.989C147.422 44.734 147.806 44.7855 148.094 44.8884C148.382 44.9913 148.67 45.0941 148.862 45.2999C149.054 45.4543 149.198 45.6601 149.295 45.9173C149.391 46.1746 149.439 46.3803 149.439 46.689C149.439 46.8948 149.391 47.1006 149.343 47.3064C149.295 47.5122 149.198 47.6665 149.102 47.8209C149.006 47.9752 148.862 48.1296 148.718 48.2325C148.574 48.3354 148.382 48.4383 148.19 48.5412C148.286 48.5926 148.382 48.6441 148.43 48.7469C148.526 48.7984 148.574 48.9013 148.622 49.0042L149.919 51.2679H148.67C148.43 51.2679 148.286 51.165 148.142 50.9592L147.134 49.1071C147.085 49.0042 147.037 48.9527 146.989 48.9527C146.941 48.9013 146.845 48.9013 146.749 48.9013H146.413V48.8498ZM146.413 47.8209H146.989C147.182 47.8209 147.326 47.7694 147.47 47.718C147.614 47.6665 147.71 47.6151 147.806 47.5122C147.902 47.4093 147.95 47.3064 147.998 47.2035C148.046 47.1006 148.046 46.9463 148.046 46.7919C148.046 46.4832 147.95 46.2774 147.806 46.1231C147.662 45.9688 147.374 45.8659 146.989 45.8659H146.413V47.8209Z" fill="#59CBE8"/>
<path d="M160.292 51.2165H158.899V44.734H160.292V51.2165Z" fill="#59CBE8"/>
<path d="M166.054 44.7855H166.198C166.246 44.7855 166.294 44.7855 166.294 44.8369C166.342 44.8369 166.342 44.8884 166.39 44.8884C166.438 44.8884 166.438 44.9398 166.486 44.9912L169.368 48.8498C169.368 48.7469 169.368 48.5926 169.32 48.4897V44.7855H170.568V51.2679H169.848C169.752 51.2679 169.656 51.2679 169.56 51.2165C169.464 51.165 169.416 51.1136 169.368 51.0107L166.534 47.1521V51.2165H165.286V44.734L166.054 44.7855Z" fill="#59CBE8"/>
<path d="M180.317 44.7855V45.9688H178.636V51.2165H177.244V45.9688H175.563V44.7855H180.317Z" fill="#59CBE8"/>
<path d="M188.865 44.7855V45.9173H186.368V47.4093H188.241V48.5412H186.368V50.0846H188.865V51.2165H184.975V44.734L188.865 44.7855Z" fill="#59CBE8"/>
<path d="M195.252 48.8498V51.2165H193.859V44.734H195.828C196.261 44.734 196.645 44.7855 196.933 44.8884C197.221 44.9913 197.509 45.0941 197.701 45.2999C197.893 45.4543 198.037 45.6601 198.133 45.9173C198.229 46.1746 198.277 46.3803 198.277 46.689C198.277 46.8948 198.229 47.1006 198.181 47.3064C198.133 47.5122 198.037 47.6665 197.941 47.8209C197.845 47.9752 197.701 48.1296 197.557 48.2325C197.413 48.3354 197.221 48.4383 197.029 48.5412C197.125 48.5926 197.221 48.6441 197.269 48.7469C197.365 48.7984 197.413 48.9013 197.461 49.0042L198.758 51.2679H197.509C197.269 51.2679 197.125 51.165 196.981 50.9592L195.972 49.1071C195.924 49.0042 195.876 48.9527 195.828 48.9527C195.78 48.9013 195.684 48.9013 195.588 48.9013H195.252V48.8498ZM195.252 47.8209H195.828C196.02 47.8209 196.164 47.7694 196.309 47.718C196.453 47.6665 196.549 47.6151 196.645 47.5122C196.741 47.4093 196.789 47.3064 196.837 47.2035C196.885 47.1006 196.885 46.9463 196.885 46.7919C196.885 46.4832 196.789 46.2774 196.645 46.1231C196.501 45.9688 196.212 45.8659 195.828 45.8659H195.252V47.8209Z" fill="#59CBE8"/>
<path d="M204.472 44.7855H204.617C204.665 44.7855 204.713 44.7855 204.713 44.8369C204.761 44.8369 204.761 44.8884 204.809 44.8884C204.841 44.9227 204.873 44.9569 204.905 44.9912L207.786 48.8498C207.786 48.7469 207.786 48.5926 207.738 48.4897V44.7855H208.987V51.2679H208.266C208.17 51.2679 208.074 51.2679 207.978 51.2165C207.882 51.165 207.834 51.1136 207.786 51.0107L204.953 47.1521V51.2165H203.704V44.734L204.472 44.7855Z" fill="#59CBE8"/>
<path d="M217.583 46.0716C217.535 46.1231 217.487 46.1745 217.439 46.226C217.391 46.2774 217.343 46.2774 217.246 46.2774C217.198 46.2774 217.102 46.2774 217.054 46.226C217.006 46.1745 216.91 46.1231 216.814 46.0716C216.718 46.0202 216.622 45.9688 216.478 45.9173C216.334 45.8659 216.238 45.8659 216.094 45.8659C215.854 45.8659 215.614 45.9173 215.518 46.0202C215.374 46.1231 215.326 46.2774 215.326 46.4832C215.326 46.6376 215.374 46.7405 215.422 46.7919C215.47 46.8434 215.614 46.9463 215.71 46.9977C215.854 47.0492 215.998 47.1006 216.142 47.1521C216.286 47.2035 216.478 47.2549 216.622 47.3064C216.814 47.3578 216.958 47.4607 217.102 47.5122C217.246 47.6151 217.391 47.718 217.535 47.8209C217.679 47.9752 217.775 48.1296 217.823 48.2839C217.919 48.4897 217.919 48.6955 217.919 48.9527C217.919 49.2614 217.871 49.5187 217.775 49.7759C217.679 50.0331 217.535 50.2389 217.343 50.4447C217.15 50.6505 216.91 50.8049 216.67 50.9078C216.43 51.0106 216.094 51.0621 215.758 51.0621C215.566 51.0621 215.374 51.0621 215.181 51.0106L214.605 50.8563C214.413 50.8049 214.269 50.702 214.077 50.5991C213.885 50.4962 213.789 50.3933 213.645 50.2389L214.077 49.5187C214.125 49.4672 214.173 49.4158 214.221 49.4158C214.269 49.3643 214.317 49.3643 214.413 49.3643C214.509 49.3643 214.557 49.4158 214.653 49.4672C214.749 49.5187 214.845 49.5701 214.941 49.673C215.037 49.7759 215.181 49.8273 215.326 49.8788C215.47 49.9302 215.614 49.9817 215.806 49.9817C216.046 49.9817 216.238 49.9302 216.382 49.8273C216.526 49.7244 216.574 49.5187 216.574 49.2614C216.574 49.1071 216.526 49.0042 216.478 48.9013C216.382 48.7984 216.286 48.7469 216.19 48.644C216.046 48.5926 215.902 48.5411 215.758 48.4897C215.614 48.4383 215.422 48.3868 215.278 48.3354C215.085 48.2839 214.941 48.2325 214.797 48.1296C214.653 48.0267 214.509 47.9238 214.365 47.8209C214.221 47.6665 214.125 47.5122 214.077 47.3064C214.029 47.1006 213.981 46.8434 213.981 46.5347C213.981 46.2774 214.029 46.0716 214.125 45.8144C214.221 45.6086 214.365 45.4028 214.509 45.197C214.701 44.9912 214.893 44.8883 215.181 44.7854C215.422 44.6826 215.71 44.6311 216.046 44.6311C216.238 44.6311 216.43 44.6311 216.574 44.6826C216.766 44.734 216.91 44.734 217.054 44.8369C217.198 44.9398 217.343 44.9912 217.487 45.0427C217.631 45.0941 217.727 45.197 217.871 45.3514L217.583 46.0716Z" fill="#59CBE8"/>
<path d="M228.244 51.2165H226.851V48.4897H224.402V51.2165H223.009V44.734H224.402V47.4093H226.851V44.734H228.244V51.2165Z" fill="#59CBE8"/>
<path d="M234.727 51.2165H233.334V44.734H234.727V51.2165Z" fill="#59CBE8"/>
<path d="M241.018 49.0556V51.2165H239.625V44.734H241.738C242.17 44.734 242.506 44.7855 242.843 44.8884C243.179 44.9913 243.419 45.1456 243.611 45.3514C243.803 45.5572 243.947 45.763 244.043 46.0202C244.139 46.2774 244.187 46.5347 244.187 46.8434C244.187 47.1521 244.139 47.4608 244.043 47.718C243.947 47.9752 243.803 48.2325 243.611 48.3868C243.419 48.5412 243.179 48.7469 242.843 48.8498C242.554 48.9527 242.17 49.0042 241.738 49.0042L241.018 49.0556ZM241.018 47.9238H241.738C242.122 47.9238 242.362 47.8209 242.506 47.6665C242.65 47.4608 242.746 47.2035 242.746 46.8948C242.746 46.7405 242.746 46.6376 242.698 46.4832C242.65 46.3803 242.602 46.2774 242.506 46.1746C242.41 46.0717 242.314 46.0202 242.17 45.9688C242.026 45.9173 241.882 45.9173 241.69 45.9173H240.97L241.018 47.9238Z" fill="#59CBE8"/>
<path d="M78.8933 0.0256958V35.6791H74.5713V0.0256958H78.8933Z" fill="white"/>
<path d="M89.8904 18.9585V35.7306H85.5684V12.7848H89.8904V15.4601C90.8028 12.8362 92.5797 11.55 95.317 11.55C97.622 11.55 99.4949 12.4247 100.84 14.1739C102.184 15.9231 102.905 18.1354 102.953 20.8107V35.7306H98.6305V21.0165C98.6305 19.6788 98.1983 18.547 97.2859 17.6209C96.3734 16.6948 95.317 16.1804 94.0684 16.1804C92.8198 16.1804 91.7633 16.6434 90.8508 17.5695C90.3706 18.0839 90.0345 18.547 89.8904 18.9585Z" fill="white"/>
<path d="M111.885 12.7848V4.19299H116.207V12.7848H120.049V17.4151H116.207V35.7306H111.885V17.4151H108.043V12.7848H111.885Z" fill="white"/>
<path d="M131.718 30.5343C132.439 31.2032 133.735 31.5633 135.656 31.5633C137.721 31.5633 139.45 30.7916 140.939 29.2481C141.131 29.0423 141.467 28.5793 142.043 27.859L146.365 29.5054C145.309 31.0488 144.54 32.0778 144.06 32.5923C141.755 35.0618 138.97 36.2965 135.656 36.2965C132.343 36.2965 129.605 35.0618 127.3 32.5923C124.995 30.1228 123.843 27.1388 123.843 23.5889C123.843 20.039 124.995 17.1064 127.3 14.5855C129.605 12.116 132.391 10.8812 135.656 10.8812C138.441 10.8812 140.939 11.8073 143.004 13.608C143.34 13.9167 143.676 14.2768 144.012 14.6369C144.156 14.7913 144.54 15.2543 145.213 16.026L143.052 18.3926L131.718 30.5343ZM138.922 16.2833C138.441 15.8717 137.337 15.6659 135.656 15.6659C133.639 15.6659 131.862 16.4376 130.422 17.981C128.981 19.5245 128.261 21.4281 128.261 23.5889C128.261 25.3895 128.453 26.5728 128.837 27.0873L138.922 16.2833Z" fill="white"/>
<path d="M155.634 15.8717C157.266 13.5565 159.235 12.3218 161.588 12.1674V16.9521C160.004 17.055 158.755 17.5695 157.843 18.5984C156.45 20.0904 155.73 21.8396 155.634 23.8975V35.6791H151.312V12.7333H155.634V15.8717Z" fill="white"/>
<path d="M170.521 18.9585V35.7306H166.198V12.7848H170.521V15.4601C171.433 12.8362 173.21 11.55 175.947 11.55C178.252 11.55 180.125 12.4247 181.47 14.1739C182.814 15.9231 183.535 18.1354 183.583 20.8107V35.7306H179.261V21.0165C179.261 19.6788 178.828 18.547 177.916 17.6209C177.004 16.6948 175.947 16.1804 174.698 16.1804C173.45 16.1804 172.393 16.6434 171.481 17.5695C171.001 18.0839 170.665 18.547 170.521 18.9585Z" fill="white"/>
<path d="M189.35 35.6534V0H193.672V31.0231H205.582V35.6534H189.35Z" fill="#59CBE8"/>
<path d="M215.234 12.7076V35.6534H210.912V12.7076H215.234ZM213.073 3.29266C213.89 3.29266 214.61 3.60135 215.234 4.21873C215.811 4.8361 216.147 5.60782 216.147 6.53388C216.147 7.45995 215.859 8.23167 215.234 8.84904C214.61 9.46642 213.938 9.7751 213.073 9.7751C212.257 9.7751 211.537 9.46642 210.96 8.84904C210.384 8.23167 210.048 7.45995 210.048 6.53388C210.048 5.60782 210.336 4.8361 210.96 4.21873C211.585 3.60135 212.257 3.29266 213.073 3.29266Z" fill="#59CBE8"/>
<path d="M226.136 18.8814V35.6534H221.813V12.7077H226.136V15.3829C227.048 12.7591 228.825 11.4729 231.562 11.4729C233.867 11.4729 235.74 12.3475 237.085 14.0967C238.429 15.846 239.15 18.0582 239.198 20.7335V35.6534H234.876V20.9393C234.876 19.6017 234.443 18.4698 233.531 17.5438C232.619 16.6177 231.562 16.1032 230.313 16.1032C229.065 16.1032 228.008 16.5662 227.096 17.4923C226.616 18.0068 226.28 18.4698 226.136 18.8814Z" fill="#59CBE8"/>
<path d="M258.743 12.7077L252.932 20.3734L261 35.6534H255.861L250.051 24.232L249.859 24.4892V35.7049H245.537V4.1673H249.859V17.0807L253.172 12.7077H258.743Z" fill="#59CBE8"/>
</g>
<defs>
<clipPath id="clip0_8_925">
<rect width="186.429" height="51.2679" fill="white" transform="translate(74.5713)"/>
</clipPath>
</defs>
</svg>
